<?xml version="1.0" encoding="UTF-8" standalone="no"?>
<svg
   xmlns:dc="http://purl.org/dc/elements/1.1/"
   xmlns:cc="http://creativecommons.org/ns#"
   xmlns:rdf="http://www.w3.org/1999/02/22-rdf-syntax-ns#"
   xmlns:svg="http://www.w3.org/2000/svg"
   xmlns="http://www.w3.org/2000/svg"
   xmlns:sodipodi="http://sodipodi.sourceforge.net/DTD/sodipodi-0.dtd"
   xmlns:inkscape="http://www.inkscape.org/namespaces/inkscape"
   version="1.1"
   viewBox="46.125 63 32 32"
   width="32"
   height="32"
   id="svg115"
   sodipodi:docname="favicon.svg"
   inkscape:version="0.92.4 (5da689c313, 2019-01-14)"
   inkscape:export-filename="C:\Users\juan.sanchezalva\git\ERT\ert\src\main\resources\static\resources\images\favicon.png"
   inkscape:export-xdpi="96"
   inkscape:export-ydpi="96">
  <sodipodi:namedview
     pagecolor="#ffffff"
     bordercolor="#666666"
     borderopacity="1"
     objecttolerance="10"
     gridtolerance="10"
     guidetolerance="10"
     inkscape:pageopacity="0"
     inkscape:pageshadow="2"
     inkscape:window-width="1920"
     inkscape:window-height="986"
     id="namedview117"
     showgrid="false"
     inkscape:pagecheckerboard="true"
     inkscape:zoom="22.627417"
     inkscape:cx="2.9773203"
     inkscape:cy="16.260987"
     inkscape:window-x="-11"
     inkscape:window-y="-11"
     inkscape:window-maximized="1"
     inkscape:current-layer="svg115" />
  <defs
     id="defs5">
    <clipPath
       id="artboard_clip_path">
      <path
         d="m 46.125,63 h 272.25 V 360 L 213.66346,414 H 46.125 Z"
         id="path2"
         inkscape:connector-curvature="0" />
    </clipPath>
    <clipPath
       id="artboard_clip_path-7">
      <path
         inkscape:connector-curvature="0"
         d="m 46.125,63 h 272.25 V 360 L 213.66346,414 H 46.125 Z"
         id="path2-5" />
    </clipPath>
    <clipPath
       clipPathUnits="userSpaceOnUse"
       id="clipPath2220">
      <rect
         style="opacity:1;fill:#ff00ff;fill-opacity:1;stroke:none;stroke-width:29.81493378;stroke-linecap:butt;stroke-linejoin:miter;stroke-miterlimit:4;stroke-dasharray:none;stroke-opacity:1;paint-order:normal"
         id="rect2222"
         width="533.71704"
         height="533.71704"
         x="67.16066"
         y="-37.184868"
         transform="scale(-1,1)" />
    </clipPath>
    <clipPath
       clipPathUnits="userSpaceOnUse"
       id="clipPath2224">
      <rect
         style="opacity:1;fill:#ff00ff;fill-opacity:1;stroke:none;stroke-width:29.81493378;stroke-linecap:butt;stroke-linejoin:miter;stroke-miterlimit:4;stroke-dasharray:none;stroke-opacity:1;paint-order:normal"
         id="rect2226"
         width="533.71704"
         height="533.71704"
         x="-345.85138"
         y="-49.454403"
         transform="scale(-1,1)" />
    </clipPath>
  </defs>
  <metadata
     id="metadata7"> Produced by OmniGraffle 7.11.5 
    <dc:date>2021-07-07 04:01:13 +0000</dc:date>
<rdf:RDF>
  <cc:Work
     rdf:about="">
    <dc:format>image/svg+xml</dc:format>
    <dc:type
       rdf:resource="http://purl.org/dc/dcmitype/StillImage" />
    <dc:title />
  </cc:Work>
</rdf:RDF>
</metadata>
  <g
     id="g2362"
     transform="matrix(0.24621738,0,0,0.24621738,-2.770561,21.584142)">
    <g
       clip-path="url(#clipPath2220)"
       transform="matrix(0.37473041,0,0,0.37473041,288.73733,144.12861)"
       id="g1424">
      <g
         style="fill:none;fill-opacity:1;stroke:none;stroke-dasharray:none;stroke-opacity:1"
         id="Graphic_86"
         transform="translate(-249.41066,-0.82745458)">
        <path
           style="fill:#000000"
           inkscape:connector-curvature="0"
           id="path13"
           d="m 92.81875,66.72041 c -0.3162,0.89589 -1.63369,3.79437 -2.89848,6.42935 -7.43065,15.17749 -11.27772,24.76882 -13.649205,34.04395 -1.791785,6.85096 -1.897185,7.48335 -1.633685,14.0181 0.210795,5.74426 0.52699,7.74685 1.89718,12.38441 2.89848,9.59134 10.53993,23.87293 25.61202,48.11476 l 2.52958,4.11057 -0.94859,4.90106 -0.9486,4.95377 1.37019,2.84578 c 0.7905,1.58098 1.42289,3.05657 1.42289,3.26737 0,0.1581 -2.42418,1.47559 -5.42806,2.84577 -6.32395,3.0039 -8.59004,4.84838 -11.22502,9.11705 -1.73908,2.89848 -2.00258,3.10927 -3.84707,3.10927 -1.10669,0 -3.05658,0.3689 -4.26867,0.7905 -2.84578,1.00128 -8.748135,1.00128 -12.64791,0 -1.686385,-0.4216 -6.16585,-1.94989 -10.012925,-3.42548 -7.377945,-2.79308 -8.800835,-3.10928 -9.275135,-1.89718 -0.474294,1.21209 2.79308,12.806 4.58487,16.33688 3.530874,6.95636 8.853535,12.17361 26.82411,26.24441 5.37536,4.21597 11.91011,9.74943 14.54509,12.38441 l 4.84837,4.74297 -0.2635,15.75717 c -0.4743,26.19172 0.73779,30.6712 11.85741,43.9515 2.05529,2.47688 3.79437,4.74296 3.79437,5.11186 0,0.3162 0.3162,1.26479 0.7378,2.10798 0.4216,0.7905 2.26608,6.11316 4.05787,11.75202 3.79437,12.01551 6.37665,18.12867 11.01422,26.08631 1.89719,3.16198 4.42677,7.74683 5.58616,10.17103 1.21209,2.4242 2.52958,4.79566 2.95118,5.26996 0.42159,0.47429 1.89719,2.89848 3.37277,5.26994 3.74168,6.32397 7.66777,10.5708 11.69932,12.33173 4.03156,1.76091 16.83781,2.06137 16.83781,2.06137 10.69803,-0.0527 10.81814,-1.1973 10.81814,-1.1973 0,0 0.72861,1.1446 11.42664,1.1973 8.06304,0.0527 13.03733,-0.375 15.93581,-1.74517 4.05787,-1.89719 7.27255,-5.00647 10.80343,-10.38183 1.63368,-2.4769 3.58357,-5.48076 4.37407,-6.64015 0.7378,-1.15939 1.79178,-3.05658 2.21338,-4.21595 0.47429,-1.1594 2.52958,-4.9538 4.63756,-8.43196 5.74426,-9.59134 8.69544,-16.07338 12.43711,-27.5092 1.89719,-5.74424 3.79438,-11.17232 4.21597,-12.12091 0.4216,-0.89589 0.7378,-2.10799 0.7378,-2.74038 0,-0.5797 1.52828,-2.89848 3.42548,-5.16455 12.0155,-14.4924 13.2276,-18.70838 12.7533,-45.1636 l -0.2635,-15.75717 4.84837,-4.74297 c 2.63498,-2.63498 9.16973,-8.16844 14.54509,-12.38441 17.97057,-14.0708 23.29324,-19.28805 26.82411,-26.24441 1.79179,-3.53088 5.05916,-15.12479 4.58487,-16.33688 -0.4743,-1.2121 -1.89719,-0.8959 -9.27514,1.89718 -3.84707,1.47559 -8.32654,3.00388 -10.01292,3.42548 -3.89978,1.00128 -9.80213,1.00128 -12.64791,0 -1.21209,-0.4216 -2.89847,-0.7905 -3.63627,-0.7905 -1.054,0 -1.8972,-0.57969 -3.0039,-1.94988 -4.26865,-5.48076 -4.58485,-5.74426 -15.59907,-11.96282 -2.63498,-1.47559 -3.05658,-2.37148 -1.79179,-3.47817 1.73909,-1.42289 2.05529,-4.05787 1.05399,-9.01164 l -0.94859,-4.63756 2.58228,-4.11057 c 15.07208,-24.24183 22.71354,-38.52342 25.61202,-48.11476 1.37019,-4.63756 1.68639,-6.64015 1.89718,-12.38441 0.2635,-6.53475 0.1581,-7.16714 -1.63368,-14.0181 -2.10799,-8.11574 -4.42677,-14.22889 -9.85484,-25.82281 -2.05528,-4.47947 -4.53216,-9.90753 -5.53345,-12.06821 -2.52959,-5.63886 -3.21468,-5.48076 -3.63628,0.89589 -0.1581,2.84578 -0.63239,7.06175 -1.05399,9.38053 -0.4216,2.31879 -1.10668,6.90365 -1.58098,10.22373 -2.2661,15.96799 -9.01164,26.24441 -34.36016,52.69962 l -7.27254,7.58874 -4.47948,0.2635 -4.47946,0.2108 -6.06046,-5.32266 c -10.38182,-9.16974 -14.1235,-11.17232 -22.87163,-12.22631 -3.74167,-0.4743 -6.11317,-0.4743 -9.74943,0 -8.64274,1.10669 -12.38441,3.10927 -22.71354,12.22631 l -6.06046,5.32266 -4.47946,-0.2108 -4.47948,-0.2635 -7.27254,-7.58874 C 106.94224,116.04725 100.19669,105.77083 97.93061,89.80284 97.45631,86.48276 96.77122,81.8979 96.34962,79.57911 c -0.4216,-2.31878 -0.89589,-6.53475 -1.05399,-9.38053 -0.2635,-3.95247 -0.527,-5.11186 -1.10669,-5.11186 -0.4216,0 -1.054,0.73779 -1.37019,1.63369 z" />
      </g>
      <g
         style="fill:#ffffff;fill-opacity:1;stroke:none;stroke-dasharray:none;stroke-opacity:1"
         id="Graphic_85"
         transform="translate(-249.41066,-0.82745458)">
        <path
           style="fill:#ffffff;fill-opacity:1"
           inkscape:connector-curvature="0"
           id="path16"
           d="m 93.92544,81.2655 c 0.0527,4.74297 1.68639,15.33559 3.00388,19.39346 1.63368,4.90107 4.84836,11.06692 9.38053,17.60167 3.53087,5.11187 7.16715,9.27514 17.12737,19.60427 7.00905,7.21984 12.70061,13.4911 12.70061,13.9127 0,1.05399 -3.84707,10.59262 -5.84966,14.59779 -1.94988,3.84707 -6.64015,8.95893 -9.96022,10.80341 -1.31749,0.7378 -3.26738,1.9499 -4.32137,2.6877 -2.21338,1.42288 -8.85354,3.47817 -9.43323,2.84577 -0.1581,-0.2108 -4.00518,-6.58745 -8.59004,-14.1762 C 78.85335,136.4947 75.05897,125.74398 77.90475,111.88398 79.64384,103.61014 82.12072,96.54839 89.12977,80.10611 l 4.05787,-9.48593 0.3162,3.16198 c 0.2108,1.73908 0.3689,5.11186 0.4216,7.48334 z" />
      </g>
      <g
         style="fill:none;fill-opacity:1;stroke:none;stroke-dasharray:none;stroke-opacity:1"
         id="Graphic_84"
         transform="translate(-249.41066,-0.82745458)">
        <path
           style="fill:#ffffff"
           inkscape:connector-curvature="0"
           id="path19"
           d="m 278.1633,86.79896 c 6.64016,15.91529 9.16974,25.24312 9.22244,33.46426 0,10.17103 -4.90106,21.50145 -20.86904,48.27285 -4.58487,7.58875 -8.43195,13.9654 -8.59005,14.1762 -0.57969,0.6324 -7.21985,-1.42289 -9.43323,-2.84577 -1.05399,-0.7378 -3.00388,-1.9499 -4.32137,-2.6877 -3.32007,-1.84448 -8.01035,-6.95634 -9.96022,-10.80341 -2.00259,-4.00517 -5.84966,-13.5438 -5.84966,-14.59779 0,-0.4216 5.69156,-6.69286 12.70061,-13.9127 9.96022,-10.32913 13.5965,-14.4924 17.12737,-19.60427 4.53217,-6.53475 7.74685,-12.7006 9.38055,-17.60167 1.21208,-3.84707 2.95116,-14.59779 2.95116,-18.39217 0,-1.84448 0.1581,-5.16456 0.3689,-7.48334 l 0.3162,-4.16327 1.58099,3.42547 c 0.84319,1.89719 3.26737,7.64145 5.37535,12.75331 z" />
      </g>
      <g
         style="fill:#ff0000;fill-opacity:1;stroke:none;stroke-dasharray:none;stroke-opacity:1"
         id="Graphic_83"
         transform="translate(-249.41066,-0.82745458)">
        <path
           style="fill:#ff0000;fill-opacity:1"
           inkscape:connector-curvature="0"
           id="path22"
           d="m 190.15494,136.8109 c 2.63498,0.8432 5.21726,1.79179 5.79696,2.05529 0.5797,0.26349 2.00259,0.84319 3.10928,1.31749 1.21209,0.47429 3.79437,2.58228 6.32395,5.16456 2.37149,2.37148 5.69157,5.21726 7.37795,6.32396 3.32008,2.16068 4.26867,2.26608 10.32912,1.15939 1.7391,-0.3162 1.9499,-0.2108 3.26738,1.79178 0.7378,1.15939 1.52829,2.89848 1.73909,3.84707 0.73779,3.16198 4.00517,10.06563 6.37665,13.43841 3.32008,4.63756 7.16715,7.43065 18.07598,13.1222 5.21726,2.68768 5.26995,2.74038 6.16585,8.48465 0.2635,1.84448 0.1054,2.63497 -1.31749,5.05916 -0.8959,1.58098 -1.63369,3.26737 -1.63369,3.74167 0,0.63239 1.68639,1.68639 5.42806,3.47817 2.95117,1.4229 6.42935,3.26738 7.69414,4.11057 2.63499,1.79179 5.84966,6.48206 5.84966,8.59003 0,0.7905 -1.00129,3.3728 -2.21338,5.79697 -2.21339,4.32137 -2.26608,4.58487 -2.42418,10.32913 -0.1054,3.53087 0.1581,8.69543 0.68509,12.8587 1.05399,8.22114 0.7378,12.8587 -0.94859,15.0721 -1.79179,2.26608 -2.79307,3.21467 -4.53217,4.11056 -0.8959,0.4216 -1.8972,1.31749 -2.21338,2.00259 -0.3689,0.6324 -0.8432,1.31749 -1.1067,1.47559 -0.26349,0.1581 -0.21079,5.79696 0.1581,13.4384 0.9486,19.97316 0.2635,29.61719 -2.42418,35.04526 -1.63369,3.32007 -6.16584,8.85353 -8.85354,10.8034 -2.16068,1.581 -2.26608,1.7918 -6.06045,13.0695 -4.37407,13.06952 -7.37795,20.34207 -11.54122,28.247 -3.95247,7.37796 -6.21855,11.75203 -8.22113,15.5464 -0.8959,1.7391 -1.7918,3.2674 -2.0026,3.42548 -0.1581,0.1581 -0.7378,1.10669 -1.26479,2.10798 -1.37019,2.68768 -4.32136,6.69284 -7.37794,9.96024 -4.63757,4.90105 -8.64274,6.32394 -19.60427,6.74554 -6.27125,0.2635 -7.79953,0.1581 -9.32782,-0.5797 -1.0013,-0.47429 -2.42418,-0.84319 -3.21468,-0.84319 -0.7905,0 -2.21338,0.3689 -3.21468,0.84319 -1.52829,0.7378 -3.05657,0.8432 -9.32782,0.5797 -10.96153,-0.4216 -14.9667,-1.84449 -19.60427,-6.74554 -3.05658,-3.2674 -6.00775,-7.27256 -7.37794,-9.96024 -0.527,-1.00129 -1.10669,-1.94988 -1.26479,-2.10798 -0.2108,-0.15808 -1.1067,-1.68638 -2.00259,-3.42548 -2.00259,-3.79437 -4.26867,-8.16844 -8.22114,-15.5464 -4.16327,-7.90493 -7.16715,-15.17748 -11.54122,-28.247 -3.79437,-11.2777 -3.89977,-11.4885 -6.06045,-13.0695 -2.68769,-1.94987 -7.21985,-7.48333 -8.85354,-10.8034 -2.68768,-5.42807 -3.37278,-15.0721 -2.42418,-35.04526 0.36889,-7.64144 0.42159,-13.2803 0.1581,-13.4384 -0.2635,-0.1581 -0.7378,-0.84319 -1.1067,-1.47559 -0.31619,-0.6851 -1.31749,-1.58099 -2.21338,-2.00259 -1.73909,-0.89589 -2.74038,-1.84448 -4.53217,-4.11056 -1.68639,-2.2134 -2.00258,-6.85096 -0.94859,-15.0721 0.52699,-4.16327 0.79049,-9.32783 0.68509,-12.8587 -0.1581,-5.74426 -0.21079,-6.00776 -2.37148,-10.32913 -1.26479,-2.42417 -2.26608,-5.00647 -2.26608,-5.79697 0,-2.10797 3.21467,-6.79824 5.84966,-8.59003 1.26479,-0.84319 4.74296,-2.68767 7.74684,-4.11057 3.68897,-1.79178 5.37536,-2.84578 5.37536,-3.47817 0,-0.4743 -0.73779,-2.16069 -1.63369,-3.74167 -1.42289,-2.42419 -1.58099,-3.21468 -1.31749,-5.05916 0.8959,-5.74427 0.94859,-5.79697 6.16586,-8.48465 10.90882,-5.69155 14.75589,-8.48464 18.07597,-13.1222 2.37148,-3.37278 5.63886,-10.27643 6.37665,-13.43841 0.2108,-0.94859 1.00129,-2.68768 1.73909,-3.84707 1.31749,-2.00258 1.52828,-2.10798 3.26738,-1.79178 5.95505,1.05399 7.16714,0.94859 9.85482,-0.84319 1.37019,-0.9486 4.74297,-3.84708 7.43065,-6.42936 2.74038,-2.58228 5.79696,-5.00647 6.85095,-5.42806 1.10669,-0.4216 2.42418,-1.0013 3.00388,-1.26479 5.74426,-2.42419 12.6479,-4.21597 15.0194,-3.84708 1.00128,0.1581 4.00516,0.94859 6.58744,1.79179 z" />
      </g>
      <g
         style="fill:none;fill-opacity:1;stroke:none;stroke-dasharray:none;stroke-opacity:1"
         id="Graphic_82"
         transform="translate(-249.41066,-0.82745458)">
        <path
           style="fill:#ffffff"
           inkscape:connector-curvature="0"
           id="path25"
           d="m 55.243916,216.28193 c 0.948594,0.84319 13.649204,4.74297 17.285474,5.32267 2.52958,0.36889 5.21726,0.36889 9.11704,0 5.63886,-0.5797 6.53475,-0.4743 6.53475,0.79048 0,0.4216 0.52699,1.58099 1.10669,2.63498 2.52958,4.26867 3.21468,12.80601 1.79179,21.87034 -0.4216,2.7404 -0.9486,6.48206 -1.10669,8.27385 -0.3162,2.79308 -0.4743,3.21467 -1.2121,2.79308 -1.52828,-0.8432 -16.653075,-12.80601 -21.44874,-16.96928 -6.165856,-5.37535 -8.85354,-8.59005 -10.85612,-12.91141 -0.895896,-2.00258 -2.05529,-4.53216 -2.582284,-5.69156 -0.526996,-1.15938 -1.106692,-3.10928 -1.31749,-4.37406 -0.316196,-2.10799 -0.263496,-2.21339 0.948594,-2.21339 0.685094,0 1.47559,0.2108 1.739086,0.4743 z" />
      </g>
      <g
         style="fill:none;fill-opacity:1;stroke:none;stroke-dasharray:none;stroke-opacity:1"
         id="Graphic_81"
         transform="translate(-249.41066,-0.82745458)">
        <path
           style="fill:#ffffff"
           inkscape:connector-curvature="0"
           id="path28"
           d="m 311.94376,218.02102 c -0.21079,1.26478 -0.79049,3.21468 -1.31749,4.37406 -0.52699,1.1594 -1.68637,3.68898 -2.58227,5.69156 -2.0026,4.32136 -4.69027,7.53606 -10.85613,12.91141 -4.79567,4.16327 -19.92047,16.12608 -21.44874,16.96928 -0.7378,0.42159 -0.8959,0 -1.2121,-2.79308 -0.15809,-1.79179 -0.68509,-5.53345 -1.10669,-8.27385 -1.42289,-9.06433 -0.73779,-17.60167 1.79179,-21.87034 0.5797,-1.05399 1.10669,-2.21338 1.10669,-2.63498 0,-1.26478 0.89588,-1.37018 6.53475,-0.79048 3.89978,0.36889 6.58746,0.36889 9.11703,0 3.63628,-0.5797 16.3369,-4.47948 17.2855,-5.32267 0.2635,-0.2635 1.05398,-0.4743 1.73907,-0.4743 1.21209,0 1.26479,0.1054 0.94859,2.21339 z" />
      </g>
      <g
         style="fill:none;fill-opacity:1;stroke:none;stroke-dasharray:none;stroke-opacity:1"
         id="Graphic_80"
         transform="translate(-249.41066,-0.82745458)">
        <path
           style="fill:#000000"
           inkscape:connector-curvature="0"
           id="path31"
           d="m 85.3354,115.41486 c 0.63239,14.70319 4.00517,25.50661 11.43582,36.62624 4.84836,7.21984 16.81118,22.66083 17.54897,22.66083 0.4216,0 0.73779,-0.1581 0.73779,-0.3162 0,-0.1581 -3.05657,-4.63757 -6.79825,-9.90753 -14.65049,-20.65825 -17.91787,-27.4038 -20.81635,-43.00289 -0.73779,-3.89977 -1.52828,-8.43194 -1.84448,-10.01293 -0.4216,-2.37148 -0.4743,-1.63368 -0.2635,3.95248 z" />
      </g>
      <g
         style="fill:none;fill-opacity:1;stroke:none;stroke-dasharray:none;stroke-opacity:1"
         id="Graphic_79"
         transform="translate(-249.41066,-0.82745458)">
        <path
           style="fill:#000000"
           inkscape:connector-curvature="0"
           id="path34"
           d="m 278.6903,111.83128 c -0.6851,5.84966 -3.37277,18.44487 -4.74296,22.34464 -3.05658,8.53734 -6.69284,14.75589 -17.70707,30.30228 -3.74167,5.26996 -6.79825,9.74943 -6.79825,9.90753 0,2.10798 10.48722,-10.69803 18.28676,-22.34463 7.37795,-10.96153 10.69802,-21.50145 11.54122,-36.52085 0.3689,-6.95635 0.0527,-8.90623 -0.5797,-3.68897 z" />
      </g>
      <g
         style="fill:none;fill-opacity:1;stroke:none;stroke-dasharray:none;stroke-opacity:1"
         id="Graphic_78"
         transform="translate(-249.41066,-0.82745458)">
        <path
           style="fill:#000000"
           inkscape:connector-curvature="0"
           id="path37"
           d="m 180.9852,138.70809 c -2.05528,0.84319 -2.63497,2.37148 -4.74296,13.17491 -4.05787,20.34205 -5.11186,23.13513 -10.85612,28.93208 -2.68768,2.68768 -3.37277,3.74168 -4.11057,6.48206 -1.00129,3.53086 -0.84319,4.26866 0.7378,4.26866 0.79049,0 1.00129,-0.3689 1.00129,-1.73908 0,-0.89589 0.4216,-2.31878 0.94859,-3.05658 0.9486,-1.42289 2.52958,-3.10928 2.89848,-3.10928 0.1054,0 -0.1054,1.84449 -0.4743,4.05787 -1.58098,9.69673 -0.57969,13.7019 4.11057,16.65308 4.00518,2.47689 10.01293,5.11187 11.75202,5.11187 1.73909,0 7.74684,-2.63498 11.75202,-5.11187 4.69026,-2.95118 5.69155,-6.95635 4.11057,-16.65308 -0.3689,-2.21338 -0.57969,-4.05787 -0.47429,-4.05787 0.36889,0 1.94987,1.68639 2.89847,3.10928 0.52699,0.7378 0.94859,2.16069 0.94859,3.05658 0,1.37018 0.2108,1.73908 1.00129,1.73908 1.58099,0 1.73909,-0.7378 0.7378,-4.26866 -0.7378,-2.74038 -1.42289,-3.79438 -4.11057,-6.48206 -5.74426,-5.79695 -6.79825,-8.59003 -10.85612,-28.93208 -2.26609,-11.43583 -2.74038,-12.70062 -5.32266,-13.22761 -0.6851,-0.1581 -1.5283,-0.1054 -1.9499,0.0527 z" />
      </g>
      <g
         style="fill:none;fill-opacity:1;stroke:none;stroke-dasharray:none;stroke-opacity:1"
         id="Graphic_77"
         transform="translate(-249.41066,-0.82745458)">
        <path
           style="fill:#ffffff"
           inkscape:connector-curvature="0"
           id="path40"
           d="m 183.93639,142.55516 c 0.3689,0.73779 0.68509,2.05528 0.68509,3.00388 0,1.63369 3.68898,20.39476 4.74297,23.87293 0.2635,1.00129 1.21209,3.63627 2.05528,5.79695 2.37149,6.00776 3.21467,8.85354 4.00517,13.17491 1.1067,6.06046 1.0013,9.06433 -0.3689,10.85612 -2.26608,2.95118 -2.89847,3.37278 -7.90494,5.69155 l -5.00646,2.3715 -4.95376,-2.4242 c -4.95377,-2.37147 -5.53346,-2.79307 -7.74684,-5.63885 -2.3715,-3.10928 -1.0013,-12.22631 3.63627,-24.03103 0.84319,-2.16068 1.79178,-4.79566 2.05528,-5.79695 0.94859,-3.21468 4.26867,-19.60427 4.74297,-23.34594 0.2108,-1.94988 0.73779,-3.95247 1.10668,-4.37406 0.8959,-1.1067 2.1607,-0.7378 2.95119,0.84319 z" />
      </g>
      <g
         style="fill:none;fill-opacity:1;stroke:none;stroke-dasharray:none;stroke-opacity:1"
         id="Graphic_76"
         transform="translate(-249.41066,-0.82745458)">
        <path
           style="fill:#000000"
           inkscape:connector-curvature="0"
           id="path43"
           d="m 164.06863,207.3757 c 0,1.21208 1.73909,3.10927 4.63757,5.00646 1.63369,1.15939 4.47947,3.32007 6.27125,4.84836 1.73909,1.52828 3.47818,2.79308 3.79438,2.79308 0.31619,0 0.57969,-0.5797 0.57969,-1.3175 0,-1.37018 -2.42418,-3.53086 -6.32395,-5.53345 -1.0013,-0.527 -3.10928,-2.16068 -4.69027,-3.63627 -2.68768,-2.58228 -4.26867,-3.32008 -4.26867,-2.16068 z" />
      </g>
      <g
         style="fill:none;fill-opacity:1;stroke:none;stroke-dasharray:none;stroke-opacity:1"
         id="Graphic_75"
         transform="translate(-249.41066,-0.82745458)">
        <path
           style="fill:#000000"
           inkscape:connector-curvature="0"
           id="path46"
           d="m 196.1627,209.48368 c -1.581,1.47559 -4.11057,3.37277 -5.69156,4.26867 -3.47817,2.00258 -5.32266,3.79437 -5.32266,5.21725 0,1.6337 0.89589,1.3175 4.37407,-1.73908 1.79178,-1.52829 4.63756,-3.68897 6.27125,-4.84836 2.89848,-1.89719 4.63757,-3.79438 4.63757,-5.00646 0,-1.1594 -1.58099,-0.4216 -4.26867,2.10798 z" />
      </g>
      <g
         style="fill:none;fill-opacity:1;stroke:none;stroke-dasharray:none;stroke-opacity:1"
         id="Graphic_74"
         transform="translate(-249.41066,-0.82745458)">
        <path
           style="fill:#000000"
           inkscape:connector-curvature="0"
           id="path49"
           d="m 134.02985,224.50307 c 0,2.00258 4.74296,6.16585 10.48722,9.11703 5.58616,2.89848 10.59263,5.90236 10.59263,6.37666 0,0.2108 0.5797,1.10669 1.31749,1.94988 1.63368,1.89719 3.95247,6.37666 3.95247,7.69416 0,0.52698 -0.3689,1.58098 -0.8432,2.26607 -0.68509,1.05399 -1.31749,1.31749 -3.16197,1.31749 -1.26479,0 -2.31879,-0.2635 -2.31879,-0.527 0,-0.94859 -5.95505,-6.90365 -9.06433,-9.01163 -1.63369,-1.15939 -5.69156,-3.37278 -8.95894,-4.95376 -13.2803,-6.48207 -12.7006,-6.16587 -14.49239,-8.95894 -2.26609,-3.63627 -3.53088,-4.90106 -5.16456,-5.32266 -2.16069,-0.527 -2.16069,0.1054 -0.1054,3.05658 2.68768,3.95247 3.26737,5.63885 4.53216,12.9114 1.42289,8.53735 2.58228,11.54122 6.11316,16.28419 4.37407,5.79696 8.11574,8.53733 17.23277,12.54251 1.63369,0.73779 3.10928,1.52828 3.26738,1.84448 0.2108,0.2635 1.21209,0.7905 2.26608,1.15939 1.054,0.3162 2.63499,1.42288 3.53088,2.37148 0.89589,1.0013 1.79179,1.7918 2.05529,1.7918 0.2108,0 0.3689,-4.63757 0.2635,-10.27643 l -0.1581,-10.27643 h 1.68638 c 2.79308,0 4.26867,-0.89589 5.95506,-3.53087 1.79179,-2.84577 1.94988,-4.74297 0.68509,-7.16715 -2.37148,-4.63757 -5.95505,-7.58875 -14.70319,-12.01552 -2.58228,-1.31748 -6.90365,-4.11056 -9.59133,-6.16585 -2.63498,-2.10798 -4.95377,-3.79437 -5.11186,-3.79437 -0.1581,0 -0.2635,0.57969 -0.2635,1.31749 z" />
      </g>
      <g
         style="fill:#000000;fill-opacity:1;stroke:none;stroke-dasharray:none;stroke-opacity:1"
         id="Graphic_73"
         transform="translate(-249.41066,-0.82745458)">
        <path
           style="fill:#000000;fill-opacity:1"
           inkscape:connector-curvature="0"
           id="path52"
           d="m 127.4424,238.15227 c 0.73779,0.5797 0.84319,0.94859 0.47429,1.21209 -0.36889,0.2635 -1.21209,1.84449 -1.94989,3.58358 l -1.31748,3.16196 -0.5797,-1.47558 c -0.3162,-0.84319 -0.5797,-3.16197 -0.5797,-5.16456 v -3.68896 l 1.47559,0.79048 c 0.7905,0.4216 1.89719,1.10669 2.47689,1.58099 z" />
      </g>
      <g
         style="fill:#ffff00;fill-opacity:1;stroke:none;stroke-dasharray:none;stroke-opacity:1"
         id="Graphic_72"
         transform="translate(-249.41066,-0.82745458)">
        <path
           style="fill:#ffff00"
           inkscape:connector-curvature="0"
           id="path55"
           d="m 130.97327,245.68832 c -0.3162,7.11444 1.47559,9.48593 7.27255,10.01292 2.79308,0.2635 3.05658,0.2108 4.11057,-1.15939 1.42289,-1.79179 1.52829,-3.42547 0.2635,-3.42547 -1.63369,-0.0527 -3.95248,-2.37148 -3.74168,-3.74168 0.2635,-2.00258 1.79179,-1.79178 5.42806,0.7905 3.95248,2.84578 5.00647,4.16327 5.00647,6.37665 -0.0527,2.00259 -0.8432,3.42548 -3.10928,5.32265 -1.52829,1.2648 -2.37148,1.5283 -5.37536,1.6864 -2.00259,0.1581 -4.21597,0.0527 -4.95377,-0.1054 -1.47558,-0.3689 -5.74425,-4.53217 -6.90365,-6.79825 -1.15938,-2.16068 -1.58098,-7.85225 -0.73779,-9.96023 0.73779,-1.79178 2.00259,-3.58357 2.58228,-3.58357 0.1581,0 0.2108,2.05528 0.1581,4.58487 z" />
      </g>
      <g
         style="fill:#000000;fill-opacity:1;stroke:none;stroke-dasharray:none;stroke-opacity:1"
         id="Graphic_71"
         transform="translate(-249.41066,-0.82745458)">
        <path
           style="fill:#000000;fill-opacity:1"
           inkscape:connector-curvature="0"
           id="path58"
           d="m 136.40133,243.94923 c 1.00129,0.73779 1.00129,0.79049 0.1054,2.63497 -0.4743,1.054 -0.89589,2.5296 -0.89589,3.2147 0,0.84318 -0.3162,1.31748 -0.7905,1.31748 -0.42159,0 -0.79049,-0.4743 -0.79049,-1.0013 0,-0.57968 -0.2108,-1.21208 -0.527,-1.37018 -0.68509,-0.4216 -0.68509,-3.21468 0,-4.53217 0.6851,-1.2121 1.52829,-1.26479 2.89848,-0.2635 z" />
      </g>
      <g
         style="fill:#000000;fill-opacity:1;stroke:none;stroke-dasharray:none;stroke-opacity:1"
         id="Graphic_70"
         transform="translate(-249.41066,-0.82745458)">
        <path
           style="fill:#000000;fill-opacity:1"
           inkscape:connector-curvature="0"
           id="path61"
           d="m 151.68422,263.6062 c -0.2108,2.00257 -0.527,3.84706 -0.68509,4.16326 -0.2635,0.42159 -1.47559,-0.0527 -3.68898,-1.37019 -3.00388,-1.84449 -3.21467,-2.10799 -2.26608,-2.58227 0.57969,-0.3162 1.37019,-0.5797 1.73909,-0.5797 0.36889,0 1.63368,-0.7378 2.74038,-1.581 1.15939,-0.8959 2.21338,-1.581 2.31878,-1.581 0.1054,0 0.0527,1.581 -0.1581,3.5309 z" />
      </g>
      <g
         style="fill:none;fill-opacity:1;stroke:none;stroke-dasharray:none;stroke-opacity:1"
         id="Graphic_69"
         transform="translate(-249.41066,-0.82745458)">
        <path
           style="fill:#000000"
           inkscape:connector-curvature="0"
           id="path64"
           d="m 224.6732,227.24345 c -2.74039,2.16068 -6.06046,4.42677 -7.37795,5.00645 -9.90753,4.26868 -17.39088,11.22503 -17.39088,16.0734 0,2.00258 2.84578,6.37665 4.53217,7.00905 0.73779,0.31619 2.10798,0.52699 3.00388,0.52699 h 1.68638 l -0.1581,10.27643 c -0.1054,5.63886 0.0527,10.27643 0.2635,10.27643 0.2635,0 1.1594,-0.7905 2.0553,-1.7918 0.89588,-0.9486 2.47687,-2.05528 3.53087,-2.37148 1.05399,-0.36889 2.05528,-0.89589 2.26608,-1.15939 0.1581,-0.3162 1.63369,-1.10669 3.26738,-1.84448 9.11703,-4.00518 12.8587,-6.74555 17.23277,-12.54251 3.53088,-4.74297 4.69027,-7.74684 6.11316,-16.28419 1.26479,-7.27255 1.84448,-8.95893 4.53216,-12.9114 2.05528,-2.95118 2.05528,-3.58358 -0.1054,-3.05658 -1.63368,0.4216 -2.89847,1.68639 -5.16456,5.32266 -1.79179,2.79307 -1.21209,2.47687 -14.49239,8.95894 -3.26737,1.58098 -7.32525,3.79437 -8.95894,4.95376 -3.10928,2.10798 -9.06433,8.06304 -9.06433,9.01163 0,0.2635 -1.054,0.527 -2.31879,0.527 -1.84448,0 -2.47688,-0.2635 -3.16197,-1.31749 -0.4743,-0.68509 -0.8432,-1.73909 -0.8432,-2.26607 0,-1.3175 2.31879,-5.79697 3.95247,-7.69416 0.73779,-0.84319 1.31749,-1.73908 1.31749,-1.94988 0,-0.4743 5.00647,-3.47818 10.59263,-6.37666 5.74426,-2.95118 10.48722,-7.11445 10.48722,-9.11703 0,-0.7378 -0.1581,-1.31749 -0.3689,-1.26479 -0.26349,0 -2.68768,1.79178 -5.42805,4.00517 z" />
      </g>
      <g
         style="fill:none;fill-opacity:1;stroke:none;stroke-dasharray:none;stroke-opacity:1"
         id="Graphic_68"
         transform="translate(-249.41066,-0.82745458)">
        <path
           style="fill:#ffffff"
           inkscape:connector-curvature="0"
           id="path67"
           d="m 240.48308,244.58162 -0.6324,1.52828 -1.31748,-3.16196 c -0.7378,-1.73909 -1.5283,-3.26738 -1.7918,-3.32008 -0.9486,-0.3689 -0.4216,-1.15939 1.7918,-2.42418 l 2.21338,-1.37018 0.1581,3.58356 c 0.1054,2.00259 -0.1054,4.32137 -0.4216,5.16456 z" />
      </g>
      <g
         style="fill:none;fill-opacity:1;stroke:none;stroke-dasharray:none;stroke-opacity:1"
         id="Graphic_67"
         transform="translate(-249.41066,-0.82745458)">
        <path
           style="fill:#ffffff"
           inkscape:connector-curvature="0"
           id="path70"
           d="m 234.79152,241.99934 c 1.58098,1.89719 2.16068,4.32136 1.84448,7.79956 -0.3689,4.05786 -1.10668,5.53345 -4.32136,8.80082 -2.79308,2.89848 -3.74167,3.26738 -8.64274,2.95118 -3.00388,-0.1581 -3.84707,-0.4216 -5.37536,-1.6864 -2.26608,-1.89717 -3.05658,-3.32006 -3.10928,-5.32265 0,-2.21338 1.05399,-3.53087 5.00647,-6.37665 3.63627,-2.58228 5.16457,-2.79308 5.42807,-0.7905 0.21079,1.3702 -2.108,3.68898 -3.68899,3.74168 -1.31749,0 -1.21209,1.63368 0.21079,3.42547 1.054,1.37019 1.3175,1.42289 4.11058,1.15939 5.79696,-0.52699 7.58875,-2.89848 7.27255,-10.01292 -0.0527,-2.52959 0,-4.58487 0.1581,-4.58487 0.1581,0 0.68509,0.4216 1.10669,0.89589 z" />
      </g>
      <g
         style="fill:none;fill-opacity:1;stroke:none;stroke-dasharray:none;stroke-opacity:1"
         id="Graphic_66"
         transform="translate(-249.41066,-0.82745458)">
        <path
           style="fill:#ffffff"
           inkscape:connector-curvature="0"
           id="path73"
           d="m 230.99715,244.21273 c 0.68509,1.31749 0.68509,4.11057 0,4.53217 -0.2635,0.1581 -0.527,0.7905 -0.527,1.37018 0,0.527 -0.3689,1.0013 -0.79049,1.0013 -0.4743,0 -0.7905,-0.4743 -0.7905,-1.31748 0,-0.6851 -0.42159,-2.1607 -0.89589,-3.2147 -0.89589,-1.84448 -0.89589,-1.89718 0.1054,-2.63497 1.37019,-1.00129 2.21338,-0.9486 2.89848,0.2635 z" />
      </g>
      <g
         style="fill:none;fill-opacity:1;stroke:none;stroke-dasharray:none;stroke-opacity:1"
         id="Graphic_65"
         transform="translate(-249.41066,-0.82745458)">
        <path
           style="fill:#ffffff"
           inkscape:connector-curvature="0"
           id="path76"
           d="m 215.50346,262.0252 c 0.89589,0.6851 1.89719,1.2121 2.26608,1.2121 0.3689,0 1.1067,0.2635 1.68639,0.5797 0.94859,0.47428 0.7378,0.73778 -2.26608,2.58227 -2.21339,1.31749 -3.42548,1.79178 -3.68898,1.37019 -0.15809,-0.3162 -0.47429,-2.21339 -0.68509,-4.21596 -0.4216,-3.9525 -0.527,-3.9525 2.68768,-1.5283 z" />
      </g>
      <g
         style="fill:none;fill-opacity:1;stroke:none;stroke-dasharray:none;stroke-opacity:1"
         id="Graphic_64"
         transform="translate(-249.41066,-0.82745458)">
        <path
           style="fill:#000000"
           inkscape:connector-curvature="0"
           id="path79"
           d="m 156.90148,279.78497 c -0.1581,0.3689 0.3162,2.79308 1.054,5.37536 0.68509,2.58227 1.58098,6.21857 1.94988,8.11574 0.7905,4.11057 0.7905,17.12738 -0.0527,29.03749 -0.57969,8.64274 -0.4216,9.90754 1.21209,9.27514 0.8959,-0.3162 1.21209,-3.47818 1.94989,-19.07727 0.57969,-11.96281 0.1054,-17.75977 -2.10799,-26.29711 -0.84319,-3.42547 -1.73908,-6.42935 -1.89718,-6.69285 -0.4216,-0.73779 -1.79179,-0.57969 -2.10799,0.2635 z" />
      </g>
      <g
         style="fill:none;fill-opacity:1;stroke:none;stroke-dasharray:none;stroke-opacity:1"
         id="Graphic_63"
         transform="translate(-249.41066,-0.82745458)">
        <path
           style="fill:#000000"
           inkscape:connector-curvature="0"
           id="path82"
           d="m 206.54452,279.46877 c -0.84319,1.42289 -3.58357,13.6492 -4.00517,17.97057 -0.42159,4.79566 0.1054,22.71354 0.9486,30.61848 0.31619,2.95118 0.52699,3.42548 1.42289,3.42548 1.21209,0 1.21209,0 0.31619,-18.55027 -0.63239,-12.59521 -0.26349,-17.60167 1.89719,-25.71743 1.68638,-6.37664 1.79178,-7.79953 0.5797,-8.06303 -0.4743,-0.1054 -1.0013,0.0527 -1.1594,0.3162 z" />
      </g>
      <g
         style="fill:none;fill-opacity:1;stroke:none;stroke-dasharray:none;stroke-opacity:1"
         id="Graphic_62"
         transform="translate(-249.41066,-0.82745458)">
        <path
           style="fill:#000000"
           inkscape:connector-curvature="0"
           id="path85"
           d="m 113.1608,288.7966 c -0.6851,1.054 -0.8432,2.3715 -0.6324,6.79826 0.1054,3.00387 0.4743,5.79694 0.7905,6.16584 0.3162,0.4216 2.63498,5.58617 5.16456,11.54123 2.52958,5.95507 4.90106,11.48851 5.26996,12.38441 0.9486,2.05528 2.52958,8.53734 3.95248,16.07338 2.74037,14.65048 4.11056,18.18138 9.16973,23.34593 3.42547,3.58358 3.47817,3.63628 3.47817,6.53475 0,5.53347 1.89719,14.1235 3.47818,16.0207 0.42159,0.4216 0.73779,1.0013 0.73779,1.2121 0,0.2635 0.527,1.10667 1.21209,1.89717 0.6324,0.84319 2.10799,2.79308 3.21468,4.42677 1.21209,1.68638 2.47688,2.95116 3.00388,2.95116 0.84319,0 0.94859,-0.4216 0.68509,-4.37405 -0.1581,-2.37149 -0.1054,-6.06045 0.1581,-8.16845 l 0.42159,-3.79437 2.89849,3.79437 c 3.84707,5.16457 7.53604,8.59004 9.90753,9.27514 1.05398,0.3162 4.21597,0.94859 7.00905,1.42289 5.00646,0.89587 5.11186,0.89587 7.21984,-0.2108 l 2.16069,-1.10669 1.89718,1.10669 c 1.84449,1.10667 1.94989,1.10667 7.00905,0.2108 2.79308,-0.4743 6.00777,-1.10669 7.06175,-1.42289 2.37149,-0.6851 6.06046,-4.11057 9.90752,-9.27514 l 2.8985,-3.79437 0.4216,3.79437 c 0.26349,2.108 0.31619,5.79696 0.15809,8.16845 -0.26349,3.95245 -0.15809,4.37405 0.68509,4.37405 0.527,0 1.79179,-1.26478 3.00388,-2.95116 1.10669,-1.63369 2.58228,-3.58358 3.26738,-4.42677 0.63239,-0.7905 1.15939,-1.63367 1.15939,-1.89717 0,-0.2108 0.3162,-0.7905 0.73779,-1.2121 1.58098,-1.8972 3.47818,-10.48723 3.47818,-16.0207 0,-2.89847 0.0527,-2.95117 3.47817,-6.53475 5.05917,-5.16455 6.42936,-8.69545 9.16973,-23.34593 1.4229,-7.53604 3.00388,-14.0181 3.95248,-16.07338 0.3689,-0.8959 2.74038,-6.42934 5.26996,-12.38441 2.52958,-5.95506 4.84836,-11.11963 5.16456,-11.54123 0.3162,-0.3689 0.6851,-3.16197 0.7905,-6.16584 0.2108,-4.42676 0.0527,-5.74426 -0.6324,-6.79826 -1.1594,-1.7391 -2.95118,-1.79178 -2.95118,-0.0527 0,0.7378 0.2635,1.4756 0.527,1.6337 0.3162,0.1581 0.527,1.63368 0.527,3.21467 0,2.89848 -2.21339,9.38053 -5.95506,17.60167 -2.00259,4.47946 -3.53088,8.32656 -3.53088,8.95894 0,0.3162 -0.57968,2.05528 -1.26478,3.84707 -1.7391,4.58485 -3.32008,10.17103 -3.74168,13.2803 -0.2108,1.42289 -0.6851,3.26738 -1.10669,4.05788 -0.4216,0.79047 -0.7378,2.42417 -0.7378,3.68897 0,3.37277 -1.84448,9.96023 -3.74167,13.6492 -1.42289,2.6877 -2.37148,3.68897 -5.90236,6.16586 -6.16585,4.37406 -11.17232,9.27514 -14.387,14.12349 -1.52828,2.37149 -3.05657,4.84835 -3.32007,5.53345 -0.68509,1.7918 -4.21597,5.74427 -5.05916,5.74427 -0.4216,0 -2.10799,0.6324 -3.79437,1.37019 -1.9499,0.8959 -4.32137,1.52829 -6.48206,1.68639 -3.16198,0.2108 -3.53087,0.1054 -4.69027,-1.15939 -1.79178,-1.94989 -5.16456,-1.94989 -6.95634,0 -1.1594,1.26479 -1.52829,1.37019 -4.69027,1.15939 -2.16069,-0.1581 -4.53216,-0.79049 -6.48206,-1.68639 -1.68638,-0.73779 -3.37277,-1.37019 -3.79437,-1.37019 -1.05399,0 -4.47946,-4.26867 -5.79696,-7.21985 -0.57969,-1.37019 -1.63368,-3.37277 -2.26607,-4.37406 -1.7391,-2.74038 -9.85484,-10.38183 -14.6505,-13.8073 -3.58358,-2.47689 -4.53217,-3.47816 -5.95506,-6.16586 -1.89719,-3.68897 -3.74167,-10.27643 -3.74167,-13.6492 0,-1.2648 -0.3162,-2.8985 -0.7378,-3.68897 -0.42159,-0.7905 -0.89589,-2.63499 -1.10669,-4.05788 -0.4216,-3.10927 -2.00258,-8.69545 -3.74168,-13.2803 -0.68509,-1.79179 -1.26478,-3.53087 -1.26478,-3.84707 0,-0.63238 -1.52829,-4.47948 -3.53088,-8.95894 -3.74167,-8.22114 -5.95506,-14.70319 -5.95506,-17.60167 0,-1.58099 0.2635,-3.05657 0.527,-3.21467 0.3162,-0.1581 0.527,-0.8959 0.527,-1.6337 0,-1.73908 -1.79179,-1.6864 -2.95118,0.0527 z" />
      </g>
      <g
         style="fill:none;fill-opacity:1;stroke:none;stroke-dasharray:none;stroke-opacity:1"
         id="Graphic_61"
         transform="translate(-249.41066,-0.82745458)">
        <path
           style="fill:#ffffff"
           inkscape:connector-curvature="0"
           id="path88"
           d="m 144.88597,370.8499 c 1.15939,1.2648 3.16198,3.5309 4.37407,5.05918 l 2.26608,2.74038 -0.3689,7.69414 -0.42159,7.69415 -1.37019,-2.05529 c -0.7378,-1.15939 -2.00259,-3.10926 -2.79308,-4.26866 -1.58099,-2.3715 -3.21468,-6.69286 -4.05787,-11.06693 -0.68509,-3.26737 -0.73779,-8.01034 -0.1581,-8.01034 0.2108,0 1.37019,1.00127 2.52958,2.21337 z" />
      </g>
      <g
         style="fill:none;fill-opacity:1;stroke:none;stroke-dasharray:none;stroke-opacity:1"
         id="Graphic_60"
         transform="translate(-249.41066,-0.82745458)">
        <path
           style="fill:#ffffff"
           inkscape:connector-curvature="0"
           id="path91"
           d="m 222.5652,371.2715 c 0,5.05917 -2.16068,12.7533 -4.63756,16.4423 -0.79049,1.1594 -2.05528,3.10927 -2.79308,4.26866 l -1.37019,2.05529 -0.42159,-7.69415 -0.3689,-7.69414 2.26608,-2.74038 c 3.00388,-3.68898 6.37666,-7.27255 6.90364,-7.27255 0.2108,0 0.4216,1.15937 0.4216,2.63497 z" />
      </g>
      <g
         style="fill:none;fill-opacity:1;stroke:none;stroke-dasharray:none;stroke-opacity:1"
         id="Graphic_59"
         transform="translate(-249.41066,-0.82745458)">
        <path
           style="fill:#000000"
           inkscape:connector-curvature="0"
           id="path94"
           d="m 143.99008,329.0064 c -0.7905,0.4743 -2.42418,2.3715 -3.68898,4.2687 -2.05528,3.16196 -2.31878,3.84706 -2.47688,7.37793 -0.4743,8.37924 3.53088,14.1235 11.17232,16.12607 1.63369,0.4216 3.58357,0.7905 4.32136,0.7905 1.3175,0 3.89978,-1.3702 3.89978,-2.10798 0,-0.21079 -1.79178,-0.52699 -4.00517,-0.63239 -2.79308,-0.2108 -4.37407,-0.5797 -5.37536,-1.31749 -4.42677,-3.21468 -4.05787,-10.43454 0.63239,-12.70061 2.37149,-1.15939 4.58487,-0.3689 8.11575,2.84577 3.58357,3.2147 4.16327,2.8985 1.63368,-0.8432 -1.89718,-2.79307 -7.00905,-6.32394 -9.06433,-6.32394 -1.63369,0 -4.74297,2.58228 -6.95635,5.79694 -0.79049,1.1594 -1.63369,1.9499 -1.89719,1.7918 -1.00129,-0.5797 -0.4743,-4.69026 0.9486,-7.48334 1.58098,-3.10926 4.90106,-6.42936 6.42935,-6.42936 1.37019,0 6.85095,2.8985 8.53734,4.58487 0.84319,0.7905 1.89718,1.21209 2.58228,1.10669 1.05399,-0.15809 0.89589,-0.47429 -1.89719,-3.47816 -2.37148,-2.5296 -3.58358,-3.4782 -5.21726,-3.7944 -3.05658,-0.73778 -6.11316,-0.52698 -7.69414,0.4216 z" />
      </g>
      <g
         style="fill:none;fill-opacity:1;stroke:none;stroke-dasharray:none;stroke-opacity:1"
         id="Graphic_58"
         transform="translate(-249.41066,-0.82745458)">
        <path
           style="fill:#000000"
           inkscape:connector-curvature="0"
           id="path97"
           d="m 213.60627,328.5848 c -1.31749,0.3162 -2.74037,1.4229 -4.95377,3.7944 -2.79307,3.00387 -2.95117,3.32007 -1.89718,3.47816 0.6851,0.1054 1.73908,-0.31619 2.58228,-1.10669 1.6864,-1.68637 7.16715,-4.58487 8.53734,-4.58487 1.52829,0 4.84836,3.3201 6.42936,6.42936 1.42289,2.79308 1.94988,6.90364 0.9486,7.48334 -0.2635,0.1581 -1.1067,-0.6324 -1.8972,-1.7918 -2.21338,-3.21466 -5.32266,-5.79694 -6.95635,-5.79694 -2.05528,0 -7.16715,3.53087 -9.06433,6.32394 -2.52958,3.7417 -1.94989,4.0579 1.63368,0.8432 3.53088,-3.21467 5.74427,-4.00516 8.11575,-2.84577 4.69026,2.26607 5.05915,9.48593 0.63239,12.70061 -1.00129,0.73779 -2.58228,1.10669 -5.37536,1.31749 -2.21338,0.1054 -4.00518,0.4216 -4.00518,0.63239 0,0.73778 2.5823,2.10798 3.89978,2.10798 2.31879,0 7.32525,-1.5283 9.32784,-2.89847 2.37148,-1.52829 4.84836,-5.00646 5.74425,-7.95763 0.3689,-1.2121 0.5797,-3.8471 0.4216,-6.06047 -0.1581,-3.53087 -0.4216,-4.21597 -2.47687,-7.32523 -1.2648,-1.8972 -2.9512,-3.8471 -3.84708,-4.3741 -1.63369,-0.94858 -4.69027,-1.10668 -7.79955,-0.3689 z" />
      </g>
      <g
         style="fill:none;fill-opacity:1;stroke:none;stroke-dasharray:none;stroke-opacity:1"
         id="Graphic_57"
         transform="translate(-249.41066,-0.82745458)">
        <path
           style="fill:#000000"
           inkscape:connector-curvature="0"
           id="path100"
           d="m 180.9325,375.4875 v 11.0669 h 1.3175 1.3175 v -11.0669 -11.06694 h -1.3175 -1.3175 z" />
      </g>
      <g
         style="fill:none;fill-opacity:1;stroke:none;stroke-dasharray:none;stroke-opacity:1"
         id="Graphic_56"
         transform="translate(-249.41066,-0.82745458)">
        <path
           style="fill:#000000"
           inkscape:connector-curvature="0"
           id="path103"
           d="m 57.4573,223.92337 c -0.3689,0.8959 3.32008,7.16715 5.90236,10.06563 4.37407,4.95376 15.75718,13.5965 22.13384,16.86388 1.47559,0.73779 1.84448,0.73779 2.21338,0.1581 0.2635,-0.3689 0.4743,-0.8432 0.4743,-1.054 0,-0.15808 -3.47818,-2.31878 -7.74685,-4.74296 -9.22243,-5.16456 -14.38699,-9.80212 -18.075965,-16.23148 -3.320075,-5.69156 -4.268669,-6.69286 -4.901065,-5.05917 z" />
      </g>
      <g
         style="fill:none;fill-opacity:1;stroke:none;stroke-dasharray:none;stroke-opacity:1"
         id="Graphic_55"
         transform="translate(-249.41066,-0.82745458)">
        <path
           style="fill:#000000"
           inkscape:connector-curvature="0"
           id="path106"
           d="m 305.1982,224.08147 c -0.4216,0.527 -1.79177,2.74038 -3.05657,4.90107 -3.68897,6.42936 -8.85353,11.06692 -18.07596,16.23148 -4.26867,2.42418 -7.74685,4.58488 -7.74685,4.74296 0,0.2108 0.2108,0.6851 0.4743,1.054 0.36888,0.57969 0.73778,0.57969 2.21338,-0.1581 6.37666,-3.26738 17.75977,-11.91012 22.13384,-16.86388 2.58228,-2.89848 6.27126,-9.16973 5.90236,-10.06563 -0.3689,-1.00129 -0.8959,-0.94859 -1.8445,0.1581 z" />
      </g>
      <g
         style="fill:none;fill-opacity:1;stroke:none;stroke-dasharray:none;stroke-opacity:1"
         id="Graphic_54"
         transform="translate(-249.41066,-0.82745458)">
        <path
           style="fill:#000000"
           inkscape:connector-curvature="0"
           id="path109"
           d="m 181.8284,169.95896 c -2.10798,30.19688 -1.94988,33.83316 1.1594,32.14677 1.00129,-0.527 1.10669,-1.00129 1.05399,-5.95506 0,-2.95117 -0.42159,-11.17232 -0.94859,-18.28677 -0.8959,-12.6479 -0.8959,-12.806 -1.2648,-7.90494 z" />
      </g>
    </g>
    <g
       clip-path="url(#clipPath2224)"
       transform="matrix(-0.37473041,0,0,0.37473041,393.17122,153.71926)"
       id="g1771">
      <g
         style="fill:none;fill-opacity:1;stroke:none;stroke-dasharray:none;stroke-opacity:1"
         id="Graphic_86-9"
         transform="translate(163.60139,-26.420925)">
        <path
           style="fill:#000000"
           inkscape:connector-curvature="0"
           id="path13-0"
           d="m 92.81875,66.72041 c -0.3162,0.89589 -1.63369,3.79437 -2.89848,6.42935 -7.43065,15.17749 -11.27772,24.76882 -13.649205,34.04395 -1.791785,6.85096 -1.897185,7.48335 -1.633685,14.0181 0.210795,5.74426 0.52699,7.74685 1.89718,12.38441 2.89848,9.59134 10.53993,23.87293 25.61202,48.11476 l 2.52958,4.11057 -0.94859,4.90106 -0.9486,4.95377 1.37019,2.84578 c 0.7905,1.58098 1.42289,3.05657 1.42289,3.26737 0,0.1581 -2.42418,1.47559 -5.42806,2.84577 -6.32395,3.0039 -8.59004,4.84838 -11.22502,9.11705 -1.73908,2.89848 -2.00258,3.10927 -3.84707,3.10927 -1.10669,0 -3.05658,0.3689 -4.26867,0.7905 -2.84578,1.00128 -8.748135,1.00128 -12.64791,0 -1.686385,-0.4216 -6.16585,-1.94989 -10.012925,-3.42548 -7.377945,-2.79308 -8.800835,-3.10928 -9.275135,-1.89718 -0.474294,1.21209 2.79308,12.806 4.58487,16.33688 3.530874,6.95636 8.853535,12.17361 26.82411,26.24441 5.37536,4.21597 11.91011,9.74943 14.54509,12.38441 l 4.84837,4.74297 -0.2635,15.75717 c -0.4743,26.19172 0.73779,30.6712 11.85741,43.9515 2.05529,2.47688 3.79437,4.74296 3.79437,5.11186 0,0.3162 0.3162,1.26479 0.7378,2.10798 0.4216,0.7905 2.26608,6.11316 4.05787,11.75202 3.79437,12.01551 6.37665,18.12867 11.01422,26.08631 1.89719,3.16198 4.42677,7.74683 5.58616,10.17103 1.21209,2.4242 2.52958,4.79566 2.95118,5.26996 0.42159,0.47429 1.89719,2.89848 3.37277,5.26994 3.74168,6.32397 7.66777,10.5708 11.69932,12.33173 4.03156,1.76091 16.83781,2.06137 16.83781,2.06137 10.69803,-0.0527 10.81814,-1.1973 10.81814,-1.1973 0,0 0.72861,1.1446 11.42664,1.1973 8.06304,0.0527 13.03733,-0.375 15.93581,-1.74517 4.05787,-1.89719 7.27255,-5.00647 10.80343,-10.38183 1.63368,-2.4769 3.58357,-5.48076 4.37407,-6.64015 0.7378,-1.15939 1.79178,-3.05658 2.21338,-4.21595 0.47429,-1.1594 2.52958,-4.9538 4.63756,-8.43196 5.74426,-9.59134 8.69544,-16.07338 12.43711,-27.5092 1.89719,-5.74424 3.79438,-11.17232 4.21597,-12.12091 0.4216,-0.89589 0.7378,-2.10799 0.7378,-2.74038 0,-0.5797 1.52828,-2.89848 3.42548,-5.16455 12.0155,-14.4924 13.2276,-18.70838 12.7533,-45.1636 l -0.2635,-15.75717 4.84837,-4.74297 c 2.63498,-2.63498 9.16973,-8.16844 14.54509,-12.38441 17.97057,-14.0708 23.29324,-19.28805 26.82411,-26.24441 1.79179,-3.53088 5.05916,-15.12479 4.58487,-16.33688 -0.4743,-1.2121 -1.89719,-0.8959 -9.27514,1.89718 -3.84707,1.47559 -8.32654,3.00388 -10.01292,3.42548 -3.89978,1.00128 -9.80213,1.00128 -12.64791,0 -1.21209,-0.4216 -2.89847,-0.7905 -3.63627,-0.7905 -1.054,0 -1.8972,-0.57969 -3.0039,-1.94988 -4.26865,-5.48076 -4.58485,-5.74426 -15.59907,-11.96282 -2.63498,-1.47559 -3.05658,-2.37148 -1.79179,-3.47817 1.73909,-1.42289 2.05529,-4.05787 1.05399,-9.01164 l -0.94859,-4.63756 2.58228,-4.11057 c 15.07208,-24.24183 22.71354,-38.52342 25.61202,-48.11476 1.37019,-4.63756 1.68639,-6.64015 1.89718,-12.38441 0.2635,-6.53475 0.1581,-7.16714 -1.63368,-14.0181 -2.10799,-8.11574 -4.42677,-14.22889 -9.85484,-25.82281 -2.05528,-4.47947 -4.53216,-9.90753 -5.53345,-12.06821 -2.52959,-5.63886 -3.21468,-5.48076 -3.63628,0.89589 -0.1581,2.84578 -0.63239,7.06175 -1.05399,9.38053 -0.4216,2.31879 -1.10668,6.90365 -1.58098,10.22373 -2.2661,15.96799 -9.01164,26.24441 -34.36016,52.69962 l -7.27254,7.58874 -4.47948,0.2635 -4.47946,0.2108 -6.06046,-5.32266 c -10.38182,-9.16974 -14.1235,-11.17232 -22.87163,-12.22631 -3.74167,-0.4743 -6.11317,-0.4743 -9.74943,0 -8.64274,1.10669 -12.38441,3.10927 -22.71354,12.22631 l -6.06046,5.32266 -4.47946,-0.2108 -4.47948,-0.2635 -7.27254,-7.58874 C 106.94224,116.04725 100.19669,105.77083 97.93061,89.80284 97.45631,86.48276 96.77122,81.8979 96.34962,79.57911 c -0.4216,-2.31878 -0.89589,-6.53475 -1.05399,-9.38053 -0.2635,-3.95247 -0.527,-5.11186 -1.10669,-5.11186 -0.4216,0 -1.054,0.73779 -1.37019,1.63369 z" />
      </g>
      <g
         style="fill:#ffffff;fill-opacity:1;stroke:none;stroke-dasharray:none;stroke-opacity:1"
         id="Graphic_85-7"
         transform="translate(163.60139,-26.420925)">
        <path
           style="fill:#ffffff;fill-opacity:1"
           inkscape:connector-curvature="0"
           id="path16-9"
           d="m 93.92544,81.2655 c 0.0527,4.74297 1.68639,15.33559 3.00388,19.39346 1.63368,4.90107 4.84836,11.06692 9.38053,17.60167 3.53087,5.11187 7.16715,9.27514 17.12737,19.60427 7.00905,7.21984 12.70061,13.4911 12.70061,13.9127 0,1.05399 -3.84707,10.59262 -5.84966,14.59779 -1.94988,3.84707 -6.64015,8.95893 -9.96022,10.80341 -1.31749,0.7378 -3.26738,1.9499 -4.32137,2.6877 -2.21338,1.42288 -8.85354,3.47817 -9.43323,2.84577 -0.1581,-0.2108 -4.00518,-6.58745 -8.59004,-14.1762 C 78.85335,136.4947 75.05897,125.74398 77.90475,111.88398 79.64384,103.61014 82.12072,96.54839 89.12977,80.10611 l 4.05787,-9.48593 0.3162,3.16198 c 0.2108,1.73908 0.3689,5.11186 0.4216,7.48334 z" />
      </g>
      <g
         style="fill:none;fill-opacity:1;stroke:none;stroke-dasharray:none;stroke-opacity:1"
         id="Graphic_84-4"
         transform="translate(163.60139,-26.420925)">
        <path
           style="fill:#ffffff"
           inkscape:connector-curvature="0"
           id="path19-0"
           d="m 278.1633,86.79896 c 6.64016,15.91529 9.16974,25.24312 9.22244,33.46426 0,10.17103 -4.90106,21.50145 -20.86904,48.27285 -4.58487,7.58875 -8.43195,13.9654 -8.59005,14.1762 -0.57969,0.6324 -7.21985,-1.42289 -9.43323,-2.84577 -1.05399,-0.7378 -3.00388,-1.9499 -4.32137,-2.6877 -3.32007,-1.84448 -8.01035,-6.95634 -9.96022,-10.80341 -2.00259,-4.00517 -5.84966,-13.5438 -5.84966,-14.59779 0,-0.4216 5.69156,-6.69286 12.70061,-13.9127 9.96022,-10.32913 13.5965,-14.4924 17.12737,-19.60427 4.53217,-6.53475 7.74685,-12.7006 9.38055,-17.60167 1.21208,-3.84707 2.95116,-14.59779 2.95116,-18.39217 0,-1.84448 0.1581,-5.16456 0.3689,-7.48334 l 0.3162,-4.16327 1.58099,3.42547 c 0.84319,1.89719 3.26737,7.64145 5.37535,12.75331 z" />
      </g>
      <g
         style="fill:#0000ff;fill-opacity:1;stroke:none;stroke-dasharray:none;stroke-opacity:1"
         id="Graphic_83-7"
         transform="translate(163.60139,-26.420925)">
        <path
           style="fill:#0000ff;fill-opacity:1"
           inkscape:connector-curvature="0"
           id="path22-5"
           d="m 190.15494,136.8109 c 2.63498,0.8432 5.21726,1.79179 5.79696,2.05529 0.5797,0.26349 2.00259,0.84319 3.10928,1.31749 1.21209,0.47429 3.79437,2.58228 6.32395,5.16456 2.37149,2.37148 5.69157,5.21726 7.37795,6.32396 3.32008,2.16068 4.26867,2.26608 10.32912,1.15939 1.7391,-0.3162 1.9499,-0.2108 3.26738,1.79178 0.7378,1.15939 1.52829,2.89848 1.73909,3.84707 0.73779,3.16198 4.00517,10.06563 6.37665,13.43841 3.32008,4.63756 7.16715,7.43065 18.07598,13.1222 5.21726,2.68768 5.26995,2.74038 6.16585,8.48465 0.2635,1.84448 0.1054,2.63497 -1.31749,5.05916 -0.8959,1.58098 -1.63369,3.26737 -1.63369,3.74167 0,0.63239 1.68639,1.68639 5.42806,3.47817 2.95117,1.4229 6.42935,3.26738 7.69414,4.11057 2.63499,1.79179 5.84966,6.48206 5.84966,8.59003 0,0.7905 -1.00129,3.3728 -2.21338,5.79697 -2.21339,4.32137 -2.26608,4.58487 -2.42418,10.32913 -0.1054,3.53087 0.1581,8.69543 0.68509,12.8587 1.05399,8.22114 0.7378,12.8587 -0.94859,15.0721 -1.79179,2.26608 -2.79307,3.21467 -4.53217,4.11056 -0.8959,0.4216 -1.8972,1.31749 -2.21338,2.00259 -0.3689,0.6324 -0.8432,1.31749 -1.1067,1.47559 -0.26349,0.1581 -0.21079,5.79696 0.1581,13.4384 0.9486,19.97316 0.2635,29.61719 -2.42418,35.04526 -1.63369,3.32007 -6.16584,8.85353 -8.85354,10.8034 -2.16068,1.581 -2.26608,1.7918 -6.06045,13.0695 -4.37407,13.06952 -7.37795,20.34207 -11.54122,28.247 -3.95247,7.37796 -6.21855,11.75203 -8.22113,15.5464 -0.8959,1.7391 -1.7918,3.2674 -2.0026,3.42548 -0.1581,0.1581 -0.7378,1.10669 -1.26479,2.10798 -1.37019,2.68768 -4.32136,6.69284 -7.37794,9.96024 -4.63757,4.90105 -8.64274,6.32394 -19.60427,6.74554 -6.27125,0.2635 -7.79953,0.1581 -9.32782,-0.5797 -1.0013,-0.47429 -2.42418,-0.84319 -3.21468,-0.84319 -0.7905,0 -2.21338,0.3689 -3.21468,0.84319 -1.52829,0.7378 -3.05657,0.8432 -9.32782,0.5797 -10.96153,-0.4216 -14.9667,-1.84449 -19.60427,-6.74554 -3.05658,-3.2674 -6.00775,-7.27256 -7.37794,-9.96024 -0.527,-1.00129 -1.10669,-1.94988 -1.26479,-2.10798 -0.2108,-0.15808 -1.1067,-1.68638 -2.00259,-3.42548 -2.00259,-3.79437 -4.26867,-8.16844 -8.22114,-15.5464 -4.16327,-7.90493 -7.16715,-15.17748 -11.54122,-28.247 -3.79437,-11.2777 -3.89977,-11.4885 -6.06045,-13.0695 -2.68769,-1.94987 -7.21985,-7.48333 -8.85354,-10.8034 -2.68768,-5.42807 -3.37278,-15.0721 -2.42418,-35.04526 0.36889,-7.64144 0.42159,-13.2803 0.1581,-13.4384 -0.2635,-0.1581 -0.7378,-0.84319 -1.1067,-1.47559 -0.31619,-0.6851 -1.31749,-1.58099 -2.21338,-2.00259 -1.73909,-0.89589 -2.74038,-1.84448 -4.53217,-4.11056 -1.68639,-2.2134 -2.00258,-6.85096 -0.94859,-15.0721 0.52699,-4.16327 0.79049,-9.32783 0.68509,-12.8587 -0.1581,-5.74426 -0.21079,-6.00776 -2.37148,-10.32913 -1.26479,-2.42417 -2.26608,-5.00647 -2.26608,-5.79697 0,-2.10797 3.21467,-6.79824 5.84966,-8.59003 1.26479,-0.84319 4.74296,-2.68767 7.74684,-4.11057 3.68897,-1.79178 5.37536,-2.84578 5.37536,-3.47817 0,-0.4743 -0.73779,-2.16069 -1.63369,-3.74167 -1.42289,-2.42419 -1.58099,-3.21468 -1.31749,-5.05916 0.8959,-5.74427 0.94859,-5.79697 6.16586,-8.48465 10.90882,-5.69155 14.75589,-8.48464 18.07597,-13.1222 2.37148,-3.37278 5.63886,-10.27643 6.37665,-13.43841 0.2108,-0.94859 1.00129,-2.68768 1.73909,-3.84707 1.31749,-2.00258 1.52828,-2.10798 3.26738,-1.79178 5.95505,1.05399 7.16714,0.94859 9.85482,-0.84319 1.37019,-0.9486 4.74297,-3.84708 7.43065,-6.42936 2.74038,-2.58228 5.79696,-5.00647 6.85095,-5.42806 1.10669,-0.4216 2.42418,-1.0013 3.00388,-1.26479 5.74426,-2.42419 12.6479,-4.21597 15.0194,-3.84708 1.00128,0.1581 4.00516,0.94859 6.58744,1.79179 z" />
      </g>
      <g
         style="fill:none;fill-opacity:1;stroke:none;stroke-dasharray:none;stroke-opacity:1"
         id="Graphic_82-3"
         transform="translate(163.60139,-26.420925)">
        <path
           style="fill:#ffffff"
           inkscape:connector-curvature="0"
           id="path25-81"
           d="m 55.243916,216.28193 c 0.948594,0.84319 13.649204,4.74297 17.285474,5.32267 2.52958,0.36889 5.21726,0.36889 9.11704,0 5.63886,-0.5797 6.53475,-0.4743 6.53475,0.79048 0,0.4216 0.52699,1.58099 1.10669,2.63498 2.52958,4.26867 3.21468,12.80601 1.79179,21.87034 -0.4216,2.7404 -0.9486,6.48206 -1.10669,8.27385 -0.3162,2.79308 -0.4743,3.21467 -1.2121,2.79308 -1.52828,-0.8432 -16.653075,-12.80601 -21.44874,-16.96928 -6.165856,-5.37535 -8.85354,-8.59005 -10.85612,-12.91141 -0.895896,-2.00258 -2.05529,-4.53216 -2.582284,-5.69156 -0.526996,-1.15938 -1.106692,-3.10928 -1.31749,-4.37406 -0.316196,-2.10799 -0.263496,-2.21339 0.948594,-2.21339 0.685094,0 1.47559,0.2108 1.739086,0.4743 z" />
      </g>
      <g
         style="fill:none;fill-opacity:1;stroke:none;stroke-dasharray:none;stroke-opacity:1"
         id="Graphic_81-1"
         transform="translate(163.60139,-26.420925)">
        <path
           style="fill:#ffffff"
           inkscape:connector-curvature="0"
           id="path28-8"
           d="m 311.94376,218.02102 c -0.21079,1.26478 -0.79049,3.21468 -1.31749,4.37406 -0.52699,1.1594 -1.68637,3.68898 -2.58227,5.69156 -2.0026,4.32136 -4.69027,7.53606 -10.85613,12.91141 -4.79567,4.16327 -19.92047,16.12608 -21.44874,16.96928 -0.7378,0.42159 -0.8959,0 -1.2121,-2.79308 -0.15809,-1.79179 -0.68509,-5.53345 -1.10669,-8.27385 -1.42289,-9.06433 -0.73779,-17.60167 1.79179,-21.87034 0.5797,-1.05399 1.10669,-2.21338 1.10669,-2.63498 0,-1.26478 0.89588,-1.37018 6.53475,-0.79048 3.89978,0.36889 6.58746,0.36889 9.11703,0 3.63628,-0.5797 16.3369,-4.47948 17.2855,-5.32267 0.2635,-0.2635 1.05398,-0.4743 1.73907,-0.4743 1.21209,0 1.26479,0.1054 0.94859,2.21339 z" />
      </g>
      <g
         style="fill:none;fill-opacity:1;stroke:none;stroke-dasharray:none;stroke-opacity:1"
         id="Graphic_80-1"
         transform="translate(163.60139,-26.420925)">
        <path
           style="fill:#000000"
           inkscape:connector-curvature="0"
           id="path31-5"
           d="m 85.3354,115.41486 c 0.63239,14.70319 4.00517,25.50661 11.43582,36.62624 4.84836,7.21984 16.81118,22.66083 17.54897,22.66083 0.4216,0 0.73779,-0.1581 0.73779,-0.3162 0,-0.1581 -3.05657,-4.63757 -6.79825,-9.90753 -14.65049,-20.65825 -17.91787,-27.4038 -20.81635,-43.00289 -0.73779,-3.89977 -1.52828,-8.43194 -1.84448,-10.01293 -0.4216,-2.37148 -0.4743,-1.63368 -0.2635,3.95248 z" />
      </g>
      <g
         style="fill:none;fill-opacity:1;stroke:none;stroke-dasharray:none;stroke-opacity:1"
         id="Graphic_79-5"
         transform="translate(163.60139,-26.420925)">
        <path
           style="fill:#000000"
           inkscape:connector-curvature="0"
           id="path34-7"
           d="m 278.6903,111.83128 c -0.6851,5.84966 -3.37277,18.44487 -4.74296,22.34464 -3.05658,8.53734 -6.69284,14.75589 -17.70707,30.30228 -3.74167,5.26996 -6.79825,9.74943 -6.79825,9.90753 0,2.10798 10.48722,-10.69803 18.28676,-22.34463 7.37795,-10.96153 10.69802,-21.50145 11.54122,-36.52085 0.3689,-6.95635 0.0527,-8.90623 -0.5797,-3.68897 z" />
      </g>
      <g
         style="fill:none;fill-opacity:1;stroke:none;stroke-dasharray:none;stroke-opacity:1"
         id="Graphic_78-98"
         transform="translate(163.60139,-26.420925)">
        <path
           style="fill:#000000"
           inkscape:connector-curvature="0"
           id="path37-9"
           d="m 180.9852,138.70809 c -2.05528,0.84319 -2.63497,2.37148 -4.74296,13.17491 -4.05787,20.34205 -5.11186,23.13513 -10.85612,28.93208 -2.68768,2.68768 -3.37277,3.74168 -4.11057,6.48206 -1.00129,3.53086 -0.84319,4.26866 0.7378,4.26866 0.79049,0 1.00129,-0.3689 1.00129,-1.73908 0,-0.89589 0.4216,-2.31878 0.94859,-3.05658 0.9486,-1.42289 2.52958,-3.10928 2.89848,-3.10928 0.1054,0 -0.1054,1.84449 -0.4743,4.05787 -1.58098,9.69673 -0.57969,13.7019 4.11057,16.65308 4.00518,2.47689 10.01293,5.11187 11.75202,5.11187 1.73909,0 7.74684,-2.63498 11.75202,-5.11187 4.69026,-2.95118 5.69155,-6.95635 4.11057,-16.65308 -0.3689,-2.21338 -0.57969,-4.05787 -0.47429,-4.05787 0.36889,0 1.94987,1.68639 2.89847,3.10928 0.52699,0.7378 0.94859,2.16069 0.94859,3.05658 0,1.37018 0.2108,1.73908 1.00129,1.73908 1.58099,0 1.73909,-0.7378 0.7378,-4.26866 -0.7378,-2.74038 -1.42289,-3.79438 -4.11057,-6.48206 -5.74426,-5.79695 -6.79825,-8.59003 -10.85612,-28.93208 -2.26609,-11.43583 -2.74038,-12.70062 -5.32266,-13.22761 -0.6851,-0.1581 -1.5283,-0.1054 -1.9499,0.0527 z" />
      </g>
      <g
         style="fill:none;fill-opacity:1;stroke:none;stroke-dasharray:none;stroke-opacity:1"
         id="Graphic_77-4"
         transform="translate(163.60139,-26.420925)">
        <path
           style="fill:#ffffff"
           inkscape:connector-curvature="0"
           id="path40-6"
           d="m 183.93639,142.55516 c 0.3689,0.73779 0.68509,2.05528 0.68509,3.00388 0,1.63369 3.68898,20.39476 4.74297,23.87293 0.2635,1.00129 1.21209,3.63627 2.05528,5.79695 2.37149,6.00776 3.21467,8.85354 4.00517,13.17491 1.1067,6.06046 1.0013,9.06433 -0.3689,10.85612 -2.26608,2.95118 -2.89847,3.37278 -7.90494,5.69155 l -5.00646,2.3715 -4.95376,-2.4242 c -4.95377,-2.37147 -5.53346,-2.79307 -7.74684,-5.63885 -2.3715,-3.10928 -1.0013,-12.22631 3.63627,-24.03103 0.84319,-2.16068 1.79178,-4.79566 2.05528,-5.79695 0.94859,-3.21468 4.26867,-19.60427 4.74297,-23.34594 0.2108,-1.94988 0.73779,-3.95247 1.10668,-4.37406 0.8959,-1.1067 2.1607,-0.7378 2.95119,0.84319 z" />
      </g>
      <g
         style="fill:none;fill-opacity:1;stroke:none;stroke-dasharray:none;stroke-opacity:1"
         id="Graphic_76-8"
         transform="translate(163.60139,-26.420925)">
        <path
           style="fill:#000000"
           inkscape:connector-curvature="0"
           id="path43-2"
           d="m 164.06863,207.3757 c 0,1.21208 1.73909,3.10927 4.63757,5.00646 1.63369,1.15939 4.47947,3.32007 6.27125,4.84836 1.73909,1.52828 3.47818,2.79308 3.79438,2.79308 0.31619,0 0.57969,-0.5797 0.57969,-1.3175 0,-1.37018 -2.42418,-3.53086 -6.32395,-5.53345 -1.0013,-0.527 -3.10928,-2.16068 -4.69027,-3.63627 -2.68768,-2.58228 -4.26867,-3.32008 -4.26867,-2.16068 z" />
      </g>
      <g
         style="fill:none;fill-opacity:1;stroke:none;stroke-dasharray:none;stroke-opacity:1"
         id="Graphic_75-2"
         transform="translate(163.60139,-26.420925)">
        <path
           style="fill:#000000"
           inkscape:connector-curvature="0"
           id="path46-7"
           d="m 196.1627,209.48368 c -1.581,1.47559 -4.11057,3.37277 -5.69156,4.26867 -3.47817,2.00258 -5.32266,3.79437 -5.32266,5.21725 0,1.6337 0.89589,1.3175 4.37407,-1.73908 1.79178,-1.52829 4.63756,-3.68897 6.27125,-4.84836 2.89848,-1.89719 4.63757,-3.79438 4.63757,-5.00646 0,-1.1594 -1.58099,-0.4216 -4.26867,2.10798 z" />
      </g>
      <g
         style="fill:none;fill-opacity:1;stroke:none;stroke-dasharray:none;stroke-opacity:1"
         id="Graphic_74-1"
         transform="translate(163.60139,-26.420925)">
        <path
           style="fill:#000000"
           inkscape:connector-curvature="0"
           id="path49-8"
           d="m 134.02985,224.50307 c 0,2.00258 4.74296,6.16585 10.48722,9.11703 5.58616,2.89848 10.59263,5.90236 10.59263,6.37666 0,0.2108 0.5797,1.10669 1.31749,1.94988 1.63368,1.89719 3.95247,6.37666 3.95247,7.69416 0,0.52698 -0.3689,1.58098 -0.8432,2.26607 -0.68509,1.05399 -1.31749,1.31749 -3.16197,1.31749 -1.26479,0 -2.31879,-0.2635 -2.31879,-0.527 0,-0.94859 -5.95505,-6.90365 -9.06433,-9.01163 -1.63369,-1.15939 -5.69156,-3.37278 -8.95894,-4.95376 -13.2803,-6.48207 -12.7006,-6.16587 -14.49239,-8.95894 -2.26609,-3.63627 -3.53088,-4.90106 -5.16456,-5.32266 -2.16069,-0.527 -2.16069,0.1054 -0.1054,3.05658 2.68768,3.95247 3.26737,5.63885 4.53216,12.9114 1.42289,8.53735 2.58228,11.54122 6.11316,16.28419 4.37407,5.79696 8.11574,8.53733 17.23277,12.54251 1.63369,0.73779 3.10928,1.52828 3.26738,1.84448 0.2108,0.2635 1.21209,0.7905 2.26608,1.15939 1.054,0.3162 2.63499,1.42288 3.53088,2.37148 0.89589,1.0013 1.79179,1.7918 2.05529,1.7918 0.2108,0 0.3689,-4.63757 0.2635,-10.27643 l -0.1581,-10.27643 h 1.68638 c 2.79308,0 4.26867,-0.89589 5.95506,-3.53087 1.79179,-2.84577 1.94988,-4.74297 0.68509,-7.16715 -2.37148,-4.63757 -5.95505,-7.58875 -14.70319,-12.01552 -2.58228,-1.31748 -6.90365,-4.11056 -9.59133,-6.16585 -2.63498,-2.10798 -4.95377,-3.79437 -5.11186,-3.79437 -0.1581,0 -0.2635,0.57969 -0.2635,1.31749 z" />
      </g>
      <g
         style="fill:#000000;fill-opacity:1;stroke:none;stroke-dasharray:none;stroke-opacity:1"
         id="Graphic_73-1"
         transform="translate(163.60139,-26.420925)">
        <path
           style="fill:#000000;fill-opacity:1"
           inkscape:connector-curvature="0"
           id="path52-5"
           d="m 127.4424,238.15227 c 0.73779,0.5797 0.84319,0.94859 0.47429,1.21209 -0.36889,0.2635 -1.21209,1.84449 -1.94989,3.58358 l -1.31748,3.16196 -0.5797,-1.47558 c -0.3162,-0.84319 -0.5797,-3.16197 -0.5797,-5.16456 v -3.68896 l 1.47559,0.79048 c 0.7905,0.4216 1.89719,1.10669 2.47689,1.58099 z" />
      </g>
      <g
         style="fill:#ffff00;fill-opacity:1;stroke:none;stroke-dasharray:none;stroke-opacity:1"
         id="Graphic_72-2"
         transform="translate(163.60139,-26.420925)">
        <path
           style="fill:#ffff00"
           inkscape:connector-curvature="0"
           id="path55-5"
           d="m 130.97327,245.68832 c -0.3162,7.11444 1.47559,9.48593 7.27255,10.01292 2.79308,0.2635 3.05658,0.2108 4.11057,-1.15939 1.42289,-1.79179 1.52829,-3.42547 0.2635,-3.42547 -1.63369,-0.0527 -3.95248,-2.37148 -3.74168,-3.74168 0.2635,-2.00258 1.79179,-1.79178 5.42806,0.7905 3.95248,2.84578 5.00647,4.16327 5.00647,6.37665 -0.0527,2.00259 -0.8432,3.42548 -3.10928,5.32265 -1.52829,1.2648 -2.37148,1.5283 -5.37536,1.6864 -2.00259,0.1581 -4.21597,0.0527 -4.95377,-0.1054 -1.47558,-0.3689 -5.74425,-4.53217 -6.90365,-6.79825 -1.15938,-2.16068 -1.58098,-7.85225 -0.73779,-9.96023 0.73779,-1.79178 2.00259,-3.58357 2.58228,-3.58357 0.1581,0 0.2108,2.05528 0.1581,4.58487 z" />
      </g>
      <g
         style="fill:#000000;fill-opacity:1;stroke:none;stroke-dasharray:none;stroke-opacity:1"
         id="Graphic_71-4"
         transform="translate(163.60139,-26.420925)">
        <path
           style="fill:#000000;fill-opacity:1"
           inkscape:connector-curvature="0"
           id="path58-8"
           d="m 136.40133,243.94923 c 1.00129,0.73779 1.00129,0.79049 0.1054,2.63497 -0.4743,1.054 -0.89589,2.5296 -0.89589,3.2147 0,0.84318 -0.3162,1.31748 -0.7905,1.31748 -0.42159,0 -0.79049,-0.4743 -0.79049,-1.0013 0,-0.57968 -0.2108,-1.21208 -0.527,-1.37018 -0.68509,-0.4216 -0.68509,-3.21468 0,-4.53217 0.6851,-1.2121 1.52829,-1.26479 2.89848,-0.2635 z" />
      </g>
      <g
         style="fill:#000000;fill-opacity:1;stroke:none;stroke-dasharray:none;stroke-opacity:1"
         id="Graphic_70-75"
         transform="translate(163.60139,-26.420925)">
        <path
           style="fill:#000000;fill-opacity:1"
           inkscape:connector-curvature="0"
           id="path61-9"
           d="m 151.68422,263.6062 c -0.2108,2.00257 -0.527,3.84706 -0.68509,4.16326 -0.2635,0.42159 -1.47559,-0.0527 -3.68898,-1.37019 -3.00388,-1.84449 -3.21467,-2.10799 -2.26608,-2.58227 0.57969,-0.3162 1.37019,-0.5797 1.73909,-0.5797 0.36889,0 1.63368,-0.7378 2.74038,-1.581 1.15939,-0.8959 2.21338,-1.581 2.31878,-1.581 0.1054,0 0.0527,1.581 -0.1581,3.5309 z" />
      </g>
      <g
         style="fill:none;fill-opacity:1;stroke:none;stroke-dasharray:none;stroke-opacity:1"
         id="Graphic_69-3"
         transform="translate(163.60139,-26.420925)">
        <path
           style="fill:#000000"
           inkscape:connector-curvature="0"
           id="path64-27"
           d="m 224.6732,227.24345 c -2.74039,2.16068 -6.06046,4.42677 -7.37795,5.00645 -9.90753,4.26868 -17.39088,11.22503 -17.39088,16.0734 0,2.00258 2.84578,6.37665 4.53217,7.00905 0.73779,0.31619 2.10798,0.52699 3.00388,0.52699 h 1.68638 l -0.1581,10.27643 c -0.1054,5.63886 0.0527,10.27643 0.2635,10.27643 0.2635,0 1.1594,-0.7905 2.0553,-1.7918 0.89588,-0.9486 2.47687,-2.05528 3.53087,-2.37148 1.05399,-0.36889 2.05528,-0.89589 2.26608,-1.15939 0.1581,-0.3162 1.63369,-1.10669 3.26738,-1.84448 9.11703,-4.00518 12.8587,-6.74555 17.23277,-12.54251 3.53088,-4.74297 4.69027,-7.74684 6.11316,-16.28419 1.26479,-7.27255 1.84448,-8.95893 4.53216,-12.9114 2.05528,-2.95118 2.05528,-3.58358 -0.1054,-3.05658 -1.63368,0.4216 -2.89847,1.68639 -5.16456,5.32266 -1.79179,2.79307 -1.21209,2.47687 -14.49239,8.95894 -3.26737,1.58098 -7.32525,3.79437 -8.95894,4.95376 -3.10928,2.10798 -9.06433,8.06304 -9.06433,9.01163 0,0.2635 -1.054,0.527 -2.31879,0.527 -1.84448,0 -2.47688,-0.2635 -3.16197,-1.31749 -0.4743,-0.68509 -0.8432,-1.73909 -0.8432,-2.26607 0,-1.3175 2.31879,-5.79697 3.95247,-7.69416 0.73779,-0.84319 1.31749,-1.73908 1.31749,-1.94988 0,-0.4743 5.00647,-3.47818 10.59263,-6.37666 5.74426,-2.95118 10.48722,-7.11445 10.48722,-9.11703 0,-0.7378 -0.1581,-1.31749 -0.3689,-1.26479 -0.26349,0 -2.68768,1.79178 -5.42805,4.00517 z" />
      </g>
      <g
         style="fill:none;fill-opacity:1;stroke:none;stroke-dasharray:none;stroke-opacity:1"
         id="Graphic_68-0"
         transform="translate(163.60139,-26.420925)">
        <path
           style="fill:#ffffff"
           inkscape:connector-curvature="0"
           id="path67-6"
           d="m 240.48308,244.58162 -0.6324,1.52828 -1.31748,-3.16196 c -0.7378,-1.73909 -1.5283,-3.26738 -1.7918,-3.32008 -0.9486,-0.3689 -0.4216,-1.15939 1.7918,-2.42418 l 2.21338,-1.37018 0.1581,3.58356 c 0.1054,2.00259 -0.1054,4.32137 -0.4216,5.16456 z" />
      </g>
      <g
         style="fill:none;fill-opacity:1;stroke:none;stroke-dasharray:none;stroke-opacity:1"
         id="Graphic_67-39"
         transform="translate(163.60139,-26.420925)">
        <path
           style="fill:#ffffff"
           inkscape:connector-curvature="0"
           id="path70-4"
           d="m 234.79152,241.99934 c 1.58098,1.89719 2.16068,4.32136 1.84448,7.79956 -0.3689,4.05786 -1.10668,5.53345 -4.32136,8.80082 -2.79308,2.89848 -3.74167,3.26738 -8.64274,2.95118 -3.00388,-0.1581 -3.84707,-0.4216 -5.37536,-1.6864 -2.26608,-1.89717 -3.05658,-3.32006 -3.10928,-5.32265 0,-2.21338 1.05399,-3.53087 5.00647,-6.37665 3.63627,-2.58228 5.16457,-2.79308 5.42807,-0.7905 0.21079,1.3702 -2.108,3.68898 -3.68899,3.74168 -1.31749,0 -1.21209,1.63368 0.21079,3.42547 1.054,1.37019 1.3175,1.42289 4.11058,1.15939 5.79696,-0.52699 7.58875,-2.89848 7.27255,-10.01292 -0.0527,-2.52959 0,-4.58487 0.1581,-4.58487 0.1581,0 0.68509,0.4216 1.10669,0.89589 z" />
      </g>
      <g
         style="fill:none;fill-opacity:1;stroke:none;stroke-dasharray:none;stroke-opacity:1"
         id="Graphic_66-5"
         transform="translate(163.60139,-26.420925)">
        <path
           style="fill:#ffffff"
           inkscape:connector-curvature="0"
           id="path73-2"
           d="m 230.99715,244.21273 c 0.68509,1.31749 0.68509,4.11057 0,4.53217 -0.2635,0.1581 -0.527,0.7905 -0.527,1.37018 0,0.527 -0.3689,1.0013 -0.79049,1.0013 -0.4743,0 -0.7905,-0.4743 -0.7905,-1.31748 0,-0.6851 -0.42159,-2.1607 -0.89589,-3.2147 -0.89589,-1.84448 -0.89589,-1.89718 0.1054,-2.63497 1.37019,-1.00129 2.21338,-0.9486 2.89848,0.2635 z" />
      </g>
      <g
         style="fill:none;fill-opacity:1;stroke:none;stroke-dasharray:none;stroke-opacity:1"
         id="Graphic_65-5"
         transform="translate(163.60139,-26.420925)">
        <path
           style="fill:#ffffff"
           inkscape:connector-curvature="0"
           id="path76-2"
           d="m 215.50346,262.0252 c 0.89589,0.6851 1.89719,1.2121 2.26608,1.2121 0.3689,0 1.1067,0.2635 1.68639,0.5797 0.94859,0.47428 0.7378,0.73778 -2.26608,2.58227 -2.21339,1.31749 -3.42548,1.79178 -3.68898,1.37019 -0.15809,-0.3162 -0.47429,-2.21339 -0.68509,-4.21596 -0.4216,-3.9525 -0.527,-3.9525 2.68768,-1.5283 z" />
      </g>
      <g
         style="fill:none;fill-opacity:1;stroke:none;stroke-dasharray:none;stroke-opacity:1"
         id="Graphic_64-0"
         transform="translate(163.60139,-26.420925)">
        <path
           style="fill:#000000"
           inkscape:connector-curvature="0"
           id="path79-6"
           d="m 156.90148,279.78497 c -0.1581,0.3689 0.3162,2.79308 1.054,5.37536 0.68509,2.58227 1.58098,6.21857 1.94988,8.11574 0.7905,4.11057 0.7905,17.12738 -0.0527,29.03749 -0.57969,8.64274 -0.4216,9.90754 1.21209,9.27514 0.8959,-0.3162 1.21209,-3.47818 1.94989,-19.07727 0.57969,-11.96281 0.1054,-17.75977 -2.10799,-26.29711 -0.84319,-3.42547 -1.73908,-6.42935 -1.89718,-6.69285 -0.4216,-0.73779 -1.79179,-0.57969 -2.10799,0.2635 z" />
      </g>
      <g
         style="fill:none;fill-opacity:1;stroke:none;stroke-dasharray:none;stroke-opacity:1"
         id="Graphic_63-2"
         transform="translate(163.60139,-26.420925)">
        <path
           style="fill:#000000"
           inkscape:connector-curvature="0"
           id="path82-0"
           d="m 206.54452,279.46877 c -0.84319,1.42289 -3.58357,13.6492 -4.00517,17.97057 -0.42159,4.79566 0.1054,22.71354 0.9486,30.61848 0.31619,2.95118 0.52699,3.42548 1.42289,3.42548 1.21209,0 1.21209,0 0.31619,-18.55027 -0.63239,-12.59521 -0.26349,-17.60167 1.89719,-25.71743 1.68638,-6.37664 1.79178,-7.79953 0.5797,-8.06303 -0.4743,-0.1054 -1.0013,0.0527 -1.1594,0.3162 z" />
      </g>
      <g
         style="fill:none;fill-opacity:1;stroke:none;stroke-dasharray:none;stroke-opacity:1"
         id="Graphic_62-2"
         transform="translate(163.60139,-26.420925)">
        <path
           style="fill:#000000"
           inkscape:connector-curvature="0"
           id="path85-6"
           d="m 113.1608,288.7966 c -0.6851,1.054 -0.8432,2.3715 -0.6324,6.79826 0.1054,3.00387 0.4743,5.79694 0.7905,6.16584 0.3162,0.4216 2.63498,5.58617 5.16456,11.54123 2.52958,5.95507 4.90106,11.48851 5.26996,12.38441 0.9486,2.05528 2.52958,8.53734 3.95248,16.07338 2.74037,14.65048 4.11056,18.18138 9.16973,23.34593 3.42547,3.58358 3.47817,3.63628 3.47817,6.53475 0,5.53347 1.89719,14.1235 3.47818,16.0207 0.42159,0.4216 0.73779,1.0013 0.73779,1.2121 0,0.2635 0.527,1.10667 1.21209,1.89717 0.6324,0.84319 2.10799,2.79308 3.21468,4.42677 1.21209,1.68638 2.47688,2.95116 3.00388,2.95116 0.84319,0 0.94859,-0.4216 0.68509,-4.37405 -0.1581,-2.37149 -0.1054,-6.06045 0.1581,-8.16845 l 0.42159,-3.79437 2.89849,3.79437 c 3.84707,5.16457 7.53604,8.59004 9.90753,9.27514 1.05398,0.3162 4.21597,0.94859 7.00905,1.42289 5.00646,0.89587 5.11186,0.89587 7.21984,-0.2108 l 2.16069,-1.10669 1.89718,1.10669 c 1.84449,1.10667 1.94989,1.10667 7.00905,0.2108 2.79308,-0.4743 6.00777,-1.10669 7.06175,-1.42289 2.37149,-0.6851 6.06046,-4.11057 9.90752,-9.27514 l 2.8985,-3.79437 0.4216,3.79437 c 0.26349,2.108 0.31619,5.79696 0.15809,8.16845 -0.26349,3.95245 -0.15809,4.37405 0.68509,4.37405 0.527,0 1.79179,-1.26478 3.00388,-2.95116 1.10669,-1.63369 2.58228,-3.58358 3.26738,-4.42677 0.63239,-0.7905 1.15939,-1.63367 1.15939,-1.89717 0,-0.2108 0.3162,-0.7905 0.73779,-1.2121 1.58098,-1.8972 3.47818,-10.48723 3.47818,-16.0207 0,-2.89847 0.0527,-2.95117 3.47817,-6.53475 5.05917,-5.16455 6.42936,-8.69545 9.16973,-23.34593 1.4229,-7.53604 3.00388,-14.0181 3.95248,-16.07338 0.3689,-0.8959 2.74038,-6.42934 5.26996,-12.38441 2.52958,-5.95506 4.84836,-11.11963 5.16456,-11.54123 0.3162,-0.3689 0.6851,-3.16197 0.7905,-6.16584 0.2108,-4.42676 0.0527,-5.74426 -0.6324,-6.79826 -1.1594,-1.7391 -2.95118,-1.79178 -2.95118,-0.0527 0,0.7378 0.2635,1.4756 0.527,1.6337 0.3162,0.1581 0.527,1.63368 0.527,3.21467 0,2.89848 -2.21339,9.38053 -5.95506,17.60167 -2.00259,4.47946 -3.53088,8.32656 -3.53088,8.95894 0,0.3162 -0.57968,2.05528 -1.26478,3.84707 -1.7391,4.58485 -3.32008,10.17103 -3.74168,13.2803 -0.2108,1.42289 -0.6851,3.26738 -1.10669,4.05788 -0.4216,0.79047 -0.7378,2.42417 -0.7378,3.68897 0,3.37277 -1.84448,9.96023 -3.74167,13.6492 -1.42289,2.6877 -2.37148,3.68897 -5.90236,6.16586 -6.16585,4.37406 -11.17232,9.27514 -14.387,14.12349 -1.52828,2.37149 -3.05657,4.84835 -3.32007,5.53345 -0.68509,1.7918 -4.21597,5.74427 -5.05916,5.74427 -0.4216,0 -2.10799,0.6324 -3.79437,1.37019 -1.9499,0.8959 -4.32137,1.52829 -6.48206,1.68639 -3.16198,0.2108 -3.53087,0.1054 -4.69027,-1.15939 -1.79178,-1.94989 -5.16456,-1.94989 -6.95634,0 -1.1594,1.26479 -1.52829,1.37019 -4.69027,1.15939 -2.16069,-0.1581 -4.53216,-0.79049 -6.48206,-1.68639 -1.68638,-0.73779 -3.37277,-1.37019 -3.79437,-1.37019 -1.05399,0 -4.47946,-4.26867 -5.79696,-7.21985 -0.57969,-1.37019 -1.63368,-3.37277 -2.26607,-4.37406 -1.7391,-2.74038 -9.85484,-10.38183 -14.6505,-13.8073 -3.58358,-2.47689 -4.53217,-3.47816 -5.95506,-6.16586 -1.89719,-3.68897 -3.74167,-10.27643 -3.74167,-13.6492 0,-1.2648 -0.3162,-2.8985 -0.7378,-3.68897 -0.42159,-0.7905 -0.89589,-2.63499 -1.10669,-4.05788 -0.4216,-3.10927 -2.00258,-8.69545 -3.74168,-13.2803 -0.68509,-1.79179 -1.26478,-3.53087 -1.26478,-3.84707 0,-0.63238 -1.52829,-4.47948 -3.53088,-8.95894 -3.74167,-8.22114 -5.95506,-14.70319 -5.95506,-17.60167 0,-1.58099 0.2635,-3.05657 0.527,-3.21467 0.3162,-0.1581 0.527,-0.8959 0.527,-1.6337 0,-1.73908 -1.79179,-1.6864 -2.95118,0.0527 z" />
      </g>
      <g
         style="fill:none;fill-opacity:1;stroke:none;stroke-dasharray:none;stroke-opacity:1"
         id="Graphic_61-0"
         transform="translate(163.60139,-26.420925)">
        <path
           style="fill:#ffffff"
           inkscape:connector-curvature="0"
           id="path88-67"
           d="m 144.88597,370.8499 c 1.15939,1.2648 3.16198,3.5309 4.37407,5.05918 l 2.26608,2.74038 -0.3689,7.69414 -0.42159,7.69415 -1.37019,-2.05529 c -0.7378,-1.15939 -2.00259,-3.10926 -2.79308,-4.26866 -1.58099,-2.3715 -3.21468,-6.69286 -4.05787,-11.06693 -0.68509,-3.26737 -0.73779,-8.01034 -0.1581,-8.01034 0.2108,0 1.37019,1.00127 2.52958,2.21337 z" />
      </g>
      <g
         style="fill:none;fill-opacity:1;stroke:none;stroke-dasharray:none;stroke-opacity:1"
         id="Graphic_60-2"
         transform="translate(163.60139,-26.420925)">
        <path
           style="fill:#ffffff"
           inkscape:connector-curvature="0"
           id="path91-3"
           d="m 222.5652,371.2715 c 0,5.05917 -2.16068,12.7533 -4.63756,16.4423 -0.79049,1.1594 -2.05528,3.10927 -2.79308,4.26866 l -1.37019,2.05529 -0.42159,-7.69415 -0.3689,-7.69414 2.26608,-2.74038 c 3.00388,-3.68898 6.37666,-7.27255 6.90364,-7.27255 0.2108,0 0.4216,1.15937 0.4216,2.63497 z" />
      </g>
      <g
         style="fill:none;fill-opacity:1;stroke:none;stroke-dasharray:none;stroke-opacity:1"
         id="Graphic_59-0"
         transform="translate(163.60139,-26.420925)">
        <path
           style="fill:#000000"
           inkscape:connector-curvature="0"
           id="path94-8"
           d="m 143.99008,329.0064 c -0.7905,0.4743 -2.42418,2.3715 -3.68898,4.2687 -2.05528,3.16196 -2.31878,3.84706 -2.47688,7.37793 -0.4743,8.37924 3.53088,14.1235 11.17232,16.12607 1.63369,0.4216 3.58357,0.7905 4.32136,0.7905 1.3175,0 3.89978,-1.3702 3.89978,-2.10798 0,-0.21079 -1.79178,-0.52699 -4.00517,-0.63239 -2.79308,-0.2108 -4.37407,-0.5797 -5.37536,-1.31749 -4.42677,-3.21468 -4.05787,-10.43454 0.63239,-12.70061 2.37149,-1.15939 4.58487,-0.3689 8.11575,2.84577 3.58357,3.2147 4.16327,2.8985 1.63368,-0.8432 -1.89718,-2.79307 -7.00905,-6.32394 -9.06433,-6.32394 -1.63369,0 -4.74297,2.58228 -6.95635,5.79694 -0.79049,1.1594 -1.63369,1.9499 -1.89719,1.7918 -1.00129,-0.5797 -0.4743,-4.69026 0.9486,-7.48334 1.58098,-3.10926 4.90106,-6.42936 6.42935,-6.42936 1.37019,0 6.85095,2.8985 8.53734,4.58487 0.84319,0.7905 1.89718,1.21209 2.58228,1.10669 1.05399,-0.15809 0.89589,-0.47429 -1.89719,-3.47816 -2.37148,-2.5296 -3.58358,-3.4782 -5.21726,-3.7944 -3.05658,-0.73778 -6.11316,-0.52698 -7.69414,0.4216 z" />
      </g>
      <g
         style="fill:none;fill-opacity:1;stroke:none;stroke-dasharray:none;stroke-opacity:1"
         id="Graphic_58-6"
         transform="translate(163.60139,-26.420925)">
        <path
           style="fill:#000000"
           inkscape:connector-curvature="0"
           id="path97-0"
           d="m 213.60627,328.5848 c -1.31749,0.3162 -2.74037,1.4229 -4.95377,3.7944 -2.79307,3.00387 -2.95117,3.32007 -1.89718,3.47816 0.6851,0.1054 1.73908,-0.31619 2.58228,-1.10669 1.6864,-1.68637 7.16715,-4.58487 8.53734,-4.58487 1.52829,0 4.84836,3.3201 6.42936,6.42936 1.42289,2.79308 1.94988,6.90364 0.9486,7.48334 -0.2635,0.1581 -1.1067,-0.6324 -1.8972,-1.7918 -2.21338,-3.21466 -5.32266,-5.79694 -6.95635,-5.79694 -2.05528,0 -7.16715,3.53087 -9.06433,6.32394 -2.52958,3.7417 -1.94989,4.0579 1.63368,0.8432 3.53088,-3.21467 5.74427,-4.00516 8.11575,-2.84577 4.69026,2.26607 5.05915,9.48593 0.63239,12.70061 -1.00129,0.73779 -2.58228,1.10669 -5.37536,1.31749 -2.21338,0.1054 -4.00518,0.4216 -4.00518,0.63239 0,0.73778 2.5823,2.10798 3.89978,2.10798 2.31879,0 7.32525,-1.5283 9.32784,-2.89847 2.37148,-1.52829 4.84836,-5.00646 5.74425,-7.95763 0.3689,-1.2121 0.5797,-3.8471 0.4216,-6.06047 -0.1581,-3.53087 -0.4216,-4.21597 -2.47687,-7.32523 -1.2648,-1.8972 -2.9512,-3.8471 -3.84708,-4.3741 -1.63369,-0.94858 -4.69027,-1.10668 -7.79955,-0.3689 z" />
      </g>
      <g
         style="fill:none;fill-opacity:1;stroke:none;stroke-dasharray:none;stroke-opacity:1"
         id="Graphic_57-2"
         transform="translate(163.60139,-26.420925)">
        <path
           style="fill:#000000"
           inkscape:connector-curvature="0"
           id="path100-1"
           d="m 180.9325,375.4875 v 11.0669 h 1.3175 1.3175 v -11.0669 -11.06694 h -1.3175 -1.3175 z" />
      </g>
      <g
         style="fill:none;fill-opacity:1;stroke:none;stroke-dasharray:none;stroke-opacity:1"
         id="Graphic_56-2"
         transform="translate(163.60139,-26.420925)">
        <path
           style="fill:#000000"
           inkscape:connector-curvature="0"
           id="path103-1"
           d="m 57.4573,223.92337 c -0.3689,0.8959 3.32008,7.16715 5.90236,10.06563 4.37407,4.95376 15.75718,13.5965 22.13384,16.86388 1.47559,0.73779 1.84448,0.73779 2.21338,0.1581 0.2635,-0.3689 0.4743,-0.8432 0.4743,-1.054 0,-0.15808 -3.47818,-2.31878 -7.74685,-4.74296 -9.22243,-5.16456 -14.38699,-9.80212 -18.075965,-16.23148 -3.320075,-5.69156 -4.268669,-6.69286 -4.901065,-5.05917 z" />
      </g>
      <g
         style="fill:none;fill-opacity:1;stroke:none;stroke-dasharray:none;stroke-opacity:1"
         id="Graphic_55-6"
         transform="translate(163.60139,-26.420925)">
        <path
           style="fill:#000000"
           inkscape:connector-curvature="0"
           id="path106-1"
           d="m 305.1982,224.08147 c -0.4216,0.527 -1.79177,2.74038 -3.05657,4.90107 -3.68897,6.42936 -8.85353,11.06692 -18.07596,16.23148 -4.26867,2.42418 -7.74685,4.58488 -7.74685,4.74296 0,0.2108 0.2108,0.6851 0.4743,1.054 0.36888,0.57969 0.73778,0.57969 2.21338,-0.1581 6.37666,-3.26738 17.75977,-11.91012 22.13384,-16.86388 2.58228,-2.89848 6.27126,-9.16973 5.90236,-10.06563 -0.3689,-1.00129 -0.8959,-0.94859 -1.8445,0.1581 z" />
      </g>
      <g
         style="fill:none;fill-opacity:1;stroke:none;stroke-dasharray:none;stroke-opacity:1"
         id="Graphic_54-33"
         transform="translate(163.60139,-26.420925)">
        <path
           style="fill:#000000"
           inkscape:connector-curvature="0"
           id="path109-0"
           d="m 181.8284,169.95896 c -2.10798,30.19688 -1.94988,33.83316 1.1594,32.14677 1.00129,-0.527 1.10669,-1.00129 1.05399,-5.95506 0,-2.95117 -0.42159,-11.17232 -0.94859,-18.28677 -0.8959,-12.6479 -0.8959,-12.806 -1.2648,-7.90494 z" />
      </g>
    </g>
  </g>
</svg>
